<svg xmlns="http://www.w3.org/2000/svg" width="163.925" height="129.316" viewBox="0 0 163.925 129.316">
  <g id="card" transform="translate(-134.118 -150)">
    <path id="blob_13_" data-name="blob (13)" d="M67.5-36.7C77.6-21.4,69.2,6.8,54.8,31,40.5,55.2,20.2,75.3-.9,75.9c-21.2.5-43.2-18.6-55.7-41.7C-69,11.1-71.9-16-60.9-31.8c11.1-15.8,36-20.3,62.8-21.4C28.7-54.2,57.4-52,67.5-36.7Z" transform="translate(204.731 203.406)" fill="#e8f0c0"/>
    <g id="Credit_card-bro" data-name="Credit card-bro" transform="translate(32.426 -5.637)">
      <g id="freepik--Plants--inject-124" transform="translate(39.692 198.94)">
        <g id="Group_90" data-name="Group 90" transform="translate(-5 -12)">
          <path id="Path_602" data-name="Path 602" d="M403.4,227.7c.756-.994,1.82-2.425,3.023-4.2.343-.512.7-1.058,1.064-1.622a11.7,11.7,0,0,1-2.506-2.413,3.351,3.351,0,0,1-.407-2.907,1.686,1.686,0,0,1,2.355-.855c1.233.7,1.454,3.256,1.192,4.495,0,.081-.32.994-.483,1.459.215-.343.436-.68.657-1.041.32-.517.645-1.07.965-1.611l.465-.861c.163-.291.285-.581.436-.884.2-.436.4-.9.581-1.366a9.949,9.949,0,0,1-2.692-1.919,3.6,3.6,0,0,1-.843-2.832,1.675,1.675,0,0,1,2.192-1.2c1.326.512,1.936,2.994,1.866,4.262,0,.041-.047.308-.1.622.174-.459.349-.913.506-1.384.454-1.326.878-2.692,1.308-4.07.087-.285.18-.581.273-.855a10.935,10.935,0,0,1-2.773-1.965,3.505,3.505,0,0,1-.849-2.832,1.686,1.686,0,0,1,2.2-1.2c1.326.512,1.93,2.994,1.861,4.262,0,.047-.052.36-.116.715.244-.738.5-1.477.773-2.2a29.559,29.559,0,0,1,1.622-3.617,11.5,11.5,0,0,1-2.861-2.018,3.477,3.477,0,0,1-.843-2.832,1.68,1.68,0,0,1,2.192-1.2c1.326.512,1.93,3,1.861,4.262,0,.093-.2,1.238-.279,1.645v-.041a22.091,22.091,0,0,1,2.209-3.21,27.678,27.678,0,0,1,2.361-2.558c.767-.762,1.512-1.4,2.18-1.971.366-.3.7-.581,1.023-.82h-.035s.785-1.529.849-1.616c.721-1.047,2.721-2.64,4.07-2.233a1.675,1.675,0,0,1,1,2.291,3.6,3.6,0,0,1-2.4,1.744,10.839,10.839,0,0,1-3.419-.145c-.326.267-.669.552-1.047.878-.651.581-1.384,1.238-2.128,2.012-.2.2-.407.43-.61.651.419-.3,1-.7,1.058-.727,1.122-.581,3.634-1.087,4.651-.1a1.675,1.675,0,0,1-.163,2.494,3.488,3.488,0,0,1-2.907.424,11.24,11.24,0,0,1-2.983-1.744c-.442.488-.89,1-1.32,1.564a21.192,21.192,0,0,0-2.111,3.215c-.035.064-.064.14-.1.2.186-.18,1.256-1.111,1.337-1.163,1.047-.715,3.489-1.483,4.617-.611a1.686,1.686,0,0,1,.1,2.5,3.516,3.516,0,0,1-2.861.738,11.785,11.785,0,0,1-3.215-1.419,30.132,30.132,0,0,0-1.494,3.535c-.314.9-.581,1.814-.872,2.739.244-.233,1.238-1.093,1.32-1.163,1.047-.715,3.489-1.483,4.611-.581a1.68,1.68,0,0,1,.1,2.5,3.49,3.49,0,0,1-2.861.738,11.679,11.679,0,0,1-3.2-1.407c-.128.419-.25.837-.372,1.262-.4,1.372-.791,2.756-1.221,4.111-.151.465-.314.919-.477,1.378.378-.331,1.07-.93,1.134-.977,1.047-.715,3.489-1.477,4.611-.581a1.68,1.68,0,0,1,.11,2.494,3.519,3.519,0,0,1-2.861.744,10.94,10.94,0,0,1-3.1-1.349c-.273.756-.581,1.506-.884,2.227-.145.308-.273.634-.43.919l-.448.872c-.326.581-.628,1.163-.948,1.669-.157.273-.314.523-.471.785.326-.4.855-1.018.913-1.064.924-.866,3.227-1.994,4.465-1.3a1.686,1.686,0,0,1,.488,2.454,3.53,3.53,0,0,1-2.715,1.163,11.519,11.519,0,0,1-3.367-.9c-.39.645-.773,1.262-1.163,1.837-1.163,1.814-2.215,3.285-2.96,4.3s-1.2,1.587-1.2,1.587h0a.5.5,0,0,1-.768-.64S402.633,228.688,403.4,227.7Z" transform="translate(-198.922 -181.224)" fill="#78c891"/>
          <path id="Path_603" data-name="Path 603" d="M430.62,197.283a12.043,12.043,0,0,1-2.256-2.721,3.48,3.48,0,0,1-.064-2.954,1.68,1.68,0,0,1,2.43-.581c1.163.843,1.076,3.4.674,4.6C431.37,195.765,430.637,197.323,430.62,197.283Z" transform="translate(-209.779 -181.932)" fill="#78c891"/>
          <path id="Path_604" data-name="Path 604" d="M389.151,234.451c-.337-.849-.831-2.064-1.5-3.489-.186-.413-.4-.849-.616-1.291a8.477,8.477,0,0,1-2.471.669,2.57,2.57,0,0,1-1.994-.855,1.233,1.233,0,0,1,.355-1.8c.907-.512,2.6.314,3.285.948.041.041.506.581.733.861-.134-.267-.262-.535-.407-.808-.2-.4-.43-.814-.651-1.221l-.366-.616c-.116-.215-.262-.407-.39-.611-.2-.3-.419-.581-.64-.89a7.722,7.722,0,0,1-2.227.971,2.576,2.576,0,0,1-2.1-.541,1.238,1.238,0,0,1,.076-1.837c.826-.64,2.622-.081,3.39.442a2.777,2.777,0,0,1,.355.3c-.221-.279-.442-.581-.674-.843-.669-.791-1.366-1.57-2.07-2.361l-.436-.494a8.257,8.257,0,0,1-2.285,1.006,2.616,2.616,0,0,1-2.1-.541,1.233,1.233,0,0,1,.076-1.837c.82-.64,2.616-.087,3.39.436l.407.349c-.372-.436-.738-.872-1.093-1.32a21.271,21.271,0,0,1-1.663-2.39,8.722,8.722,0,0,1-2.355,1.041,2.593,2.593,0,0,1-2.1-.541,1.238,1.238,0,0,1,.076-1.837c.826-.64,2.622-.081,3.4.442.052.035.7.581.924.8v-.029a16.15,16.15,0,0,1-1.163-2.6,22.206,22.206,0,0,1-.721-2.454c-.186-.767-.308-1.488-.413-2.122-.052-.343-.1-.657-.134-.954h0s-.669-1.07-.7-1.163c-.39-.849-.634-2.715.14-3.413a1.233,1.233,0,0,1,1.82.233,2.582,2.582,0,0,1,.174,2.163,8.14,8.14,0,0,1-1.384,2.1c.047.308.1.634.157.994.122.628.256,1.337.459,2.1.052.2.122.424.18.634,0-.378-.058-.9-.052-.948.047-.93.686-2.7,1.7-2.965a1.233,1.233,0,0,1,1.506,1.052,2.57,2.57,0,0,1-.837,2,8.3,8.3,0,0,1-2.209,1.227c.14.465.3.942.483,1.425a15.913,15.913,0,0,0,1.227,2.547l.093.14c-.047-.186-.221-1.209-.227-1.285-.052-.93.39-2.756,1.361-3.134a1.233,1.233,0,0,1,1.616.878,2.57,2.57,0,0,1-.616,2.082,8.721,8.721,0,0,1-2.111,1.488,20.856,20.856,0,0,0,1.663,2.279c.442.535.913,1.064,1.4,1.587-.058-.238-.221-1.2-.227-1.268-.052-.93.39-2.756,1.366-3.134a1.233,1.233,0,0,1,1.611.878A2.57,2.57,0,0,1,383,219a8.426,8.426,0,0,1-2.1,1.483l.576.773c.715.768,1.436,1.541,2.128,2.326.238.267.459.547.686.82-.07-.366-.18-1.029-.186-1.087-.052-.93.39-2.756,1.366-3.134a1.233,1.233,0,0,1,1.611.878,2.587,2.587,0,0,1-.611,2.082,8.186,8.186,0,0,1-2.023,1.442c.372.459.733.93,1.07,1.4.134.209.291.413.413.622l.384.611c.244.424.471.826.686,1.227.116.2.215.4.32.581-.128-.36-.314-.93-.326-.983-.2-.913-.035-2.785.872-3.308a1.238,1.238,0,0,1,1.744.622,2.582,2.582,0,0,1-.291,2.151,8.379,8.379,0,0,1-1.843,1.779c.256.488.5.965.721,1.419.7,1.425,1.233,2.64,1.593,3.489s.547,1.355.547,1.355h0a.372.372,0,0,1-.227.465.366.366,0,0,1-.465-.227S389.459,235.306,389.151,234.451Z" transform="translate(-186.631 -187.295)" fill="#78c891"/>
          <path id="Path_605" data-name="Path 605" d="M374.588,216.9a8.675,8.675,0,0,1-2.564.39,2.547,2.547,0,0,1-1.89-1.076,1.238,1.238,0,0,1,.581-1.744c.965-.4,2.547.611,3.157,1.32C373.9,215.852,374.606,216.9,374.588,216.9Z" transform="translate(-185.494 -191.832)" fill="#78c891"/>
          <path id="Path_606" data-name="Path 606" d="M396.962,221.766c.157-1.238.361-3.012.506-5.146.041-.616.076-1.268.1-1.942a11.452,11.452,0,0,1-3.384-.82,3.392,3.392,0,0,1-1.82-2.326,1.68,1.68,0,0,1,1.6-1.919c1.419,0,2.907,2.076,3.291,3.279.029.081.227,1.023.32,1.506,0-.4.029-.808.041-1.233v-1.872c0-.326,0-.651-.029-.983s-.047-.651-.07-.977c-.041-.488-.11-.983-.174-1.477a11.225,11.225,0,0,1-3.3-.308,3.544,3.544,0,0,1-2.151-2.023,1.68,1.68,0,0,1,1.291-2.14c1.4-.227,3.18,1.616,3.756,2.75,0,.035.116.285.227.581-.076-.483-.157-.965-.256-1.454q-.41-2.067-.919-4.169l-.192-.878a11.757,11.757,0,0,1-3.384-.3,3.5,3.5,0,0,1-2.157-2.023,1.68,1.68,0,0,1,1.3-2.14c1.4-.227,3.175,1.616,3.75,2.75,0,.041.14.337.262.674-.163-.762-.314-1.523-.442-2.285a29.937,29.937,0,0,1-.413-3.948,11.99,11.99,0,0,1-3.489-.3,3.51,3.51,0,0,1-2.157-2.023,1.68,1.68,0,0,1,1.3-2.14c1.4-.227,3.18,1.616,3.756,2.744.041.081.448,1.163.581,1.564v-.047a22.019,22.019,0,0,1,.3-3.884,29.479,29.479,0,0,1,.75-3.4q.427-1.561.9-2.8c.163-.442.32-.849.471-1.227H397.1c-.029,0-.093-1.715-.081-1.82.093-1.268,1.023-3.651,2.4-3.983a1.686,1.686,0,0,1,2.023,1.477,3.529,3.529,0,0,1-1.209,2.7A11.33,11.33,0,0,1,397.2,181.4c-.145.4-.3.82-.459,1.285-.273.831-.581,1.744-.831,2.808-.07.279-.134.581-.2.872a11.3,11.3,0,0,1,.581-1.163c.669-1.076,2.593-2.768,3.971-2.425a1.686,1.686,0,0,1,1.111,2.239,3.5,3.5,0,0,1-2.326,1.837,11.271,11.271,0,0,1-3.442,0c-.134.645-.262,1.314-.355,2.018a21.236,21.236,0,0,0-.2,3.843c0,.07,0,.145,0,.221.064-.25.529-1.587.581-1.68.547-1.163,2.273-3.029,3.68-2.843a1.68,1.68,0,0,1,1.349,2.1,3.521,3.521,0,0,1-2.1,2.082,11.937,11.937,0,0,1-3.489.39,29.167,29.167,0,0,0,.488,3.808c.174.93.4,1.866.622,2.8.093-.32.523-1.564.581-1.651.547-1.163,2.273-3.035,3.681-2.849a1.686,1.686,0,0,1,1.349,2.1,3.505,3.505,0,0,1-2.1,2.082,11.7,11.7,0,0,1-3.489.39c.1.43.2.855.314,1.279.349,1.39.7,2.779,1.012,4.169.1.477.192.954.285,1.43.157-.477.453-1.343.488-1.413.547-1.163,2.273-3.035,3.68-2.849a1.686,1.686,0,0,1,1.349,2.1,3.521,3.521,0,0,1-2.1,2.082,11.061,11.061,0,0,1-3.355.4c.145.791.267,1.582.355,2.366.029.343.081.686.093,1.012l.052.983v2.832c.081-.506.233-1.308.25-1.384.366-1.209,1.791-3.343,3.21-3.367a1.675,1.675,0,0,1,1.651,1.872,3.547,3.547,0,0,1-1.744,2.378,12.482,12.482,0,0,1-3.355.913c0,.744-.035,1.477-.07,2.157-.1,2.163-.262,3.954-.4,5.233s-.238,1.977-.238,1.977h0a.5.5,0,1,1-.983-.163S396.805,222.987,396.962,221.766Z" transform="translate(-193.46 -175.598)" fill="#78c891"/>
          <path id="Path_607" data-name="Path 607" d="M396.62,190.639a12.141,12.141,0,0,1-3.32-1.221,3.526,3.526,0,0,1-1.541-2.518,1.68,1.68,0,0,1,1.814-1.744c1.407.151,2.634,2.4,2.907,3.64C396.486,188.924,396.643,190.645,396.62,190.639Z" transform="translate(-194.612 -179.597)" fill="#78c891"/>
          <path id="Path_608" data-name="Path 608" d="M403.4,227.7c.756-.994,1.82-2.425,3.023-4.2.343-.512.7-1.058,1.064-1.622a11.7,11.7,0,0,1-2.506-2.413,3.351,3.351,0,0,1-.407-2.907,1.686,1.686,0,0,1,2.355-.855c1.233.7,1.454,3.256,1.192,4.495,0,.081-.32.994-.483,1.459.215-.343.436-.68.657-1.041.32-.517.645-1.07.965-1.611l.465-.861c.163-.291.285-.581.436-.884.2-.436.4-.9.581-1.366a9.949,9.949,0,0,1-2.692-1.919,3.6,3.6,0,0,1-.843-2.832,1.675,1.675,0,0,1,2.192-1.2c1.326.512,1.936,2.994,1.866,4.262,0,.041-.047.308-.1.622.174-.459.349-.913.506-1.384.454-1.326.878-2.692,1.308-4.07.087-.285.18-.581.273-.855a10.935,10.935,0,0,1-2.773-1.965,3.505,3.505,0,0,1-.849-2.832,1.686,1.686,0,0,1,2.2-1.2c1.326.512,1.93,2.994,1.861,4.262,0,.047-.052.36-.116.715.244-.738.5-1.477.773-2.2a29.559,29.559,0,0,1,1.622-3.617,11.5,11.5,0,0,1-2.861-2.018,3.477,3.477,0,0,1-.843-2.832,1.68,1.68,0,0,1,2.192-1.2c1.326.512,1.93,3,1.861,4.262,0,.093-.2,1.238-.279,1.645v-.041a22.091,22.091,0,0,1,2.209-3.21,27.678,27.678,0,0,1,2.361-2.558c.767-.762,1.512-1.4,2.18-1.971.366-.3.7-.581,1.023-.82h-.035s.785-1.529.849-1.616c.721-1.047,2.721-2.64,4.07-2.233a1.675,1.675,0,0,1,1,2.291,3.6,3.6,0,0,1-2.4,1.744,10.839,10.839,0,0,1-3.419-.145c-.326.267-.669.552-1.047.878-.651.581-1.384,1.238-2.128,2.012-.2.2-.407.43-.61.651.419-.3,1-.7,1.058-.727,1.122-.581,3.634-1.087,4.651-.1a1.675,1.675,0,0,1-.163,2.494,3.488,3.488,0,0,1-2.907.424,11.24,11.24,0,0,1-2.983-1.744c-.442.488-.89,1-1.32,1.564a21.192,21.192,0,0,0-2.111,3.215c-.035.064-.064.14-.1.2.186-.18,1.256-1.111,1.337-1.163,1.047-.715,3.489-1.483,4.617-.611a1.686,1.686,0,0,1,.1,2.5,3.516,3.516,0,0,1-2.861.738,11.785,11.785,0,0,1-3.215-1.419,30.132,30.132,0,0,0-1.494,3.535c-.314.9-.581,1.814-.872,2.739.244-.233,1.238-1.093,1.32-1.163,1.047-.715,3.489-1.483,4.611-.581a1.68,1.68,0,0,1,.1,2.5,3.49,3.49,0,0,1-2.861.738,11.679,11.679,0,0,1-3.2-1.407c-.128.419-.25.837-.372,1.262-.4,1.372-.791,2.756-1.221,4.111-.151.465-.314.919-.477,1.378.378-.331,1.07-.93,1.134-.977,1.047-.715,3.489-1.477,4.611-.581a1.68,1.68,0,0,1,.11,2.494,3.519,3.519,0,0,1-2.861.744,10.94,10.94,0,0,1-3.1-1.349c-.273.756-.581,1.506-.884,2.227-.145.308-.273.634-.43.919l-.448.872c-.326.581-.628,1.163-.948,1.669-.157.273-.314.523-.471.785.326-.4.855-1.018.913-1.064.924-.866,3.227-1.994,4.465-1.3a1.686,1.686,0,0,1,.488,2.454,3.53,3.53,0,0,1-2.715,1.163,11.519,11.519,0,0,1-3.367-.9c-.39.645-.773,1.262-1.163,1.837-1.163,1.814-2.215,3.285-2.96,4.3s-1.2,1.587-1.2,1.587h0a.5.5,0,0,1-.768-.64S402.633,228.688,403.4,227.7Z" transform="translate(-198.922 -181.224)" fill="#78c891"/>
          <path id="Path_609" data-name="Path 609" d="M430.62,197.283a12.043,12.043,0,0,1-2.256-2.721,3.48,3.48,0,0,1-.064-2.954,1.68,1.68,0,0,1,2.43-.581c1.163.843,1.076,3.4.674,4.6C431.37,195.765,430.637,197.323,430.62,197.283Z" transform="translate(-209.779 -181.932)" fill="#78c891"/>
          <path id="Path_610" data-name="Path 610" d="M389.151,234.451c-.337-.849-.831-2.064-1.5-3.489-.186-.413-.4-.849-.616-1.291a8.477,8.477,0,0,1-2.471.669,2.57,2.57,0,0,1-1.994-.855,1.233,1.233,0,0,1,.355-1.8c.907-.512,2.6.314,3.285.948.041.041.506.581.733.861-.134-.267-.262-.535-.407-.808-.2-.4-.43-.814-.651-1.221l-.366-.616c-.116-.215-.262-.407-.39-.611-.2-.3-.419-.581-.64-.89a7.722,7.722,0,0,1-2.227.971,2.576,2.576,0,0,1-2.1-.541,1.238,1.238,0,0,1,.076-1.837c.826-.64,2.622-.081,3.39.442a2.777,2.777,0,0,1,.355.3c-.221-.279-.442-.581-.674-.843-.669-.791-1.366-1.57-2.07-2.361l-.436-.494a8.257,8.257,0,0,1-2.285,1.006,2.616,2.616,0,0,1-2.1-.541,1.233,1.233,0,0,1,.076-1.837c.82-.64,2.616-.087,3.39.436l.407.349c-.372-.436-.738-.872-1.093-1.32a21.271,21.271,0,0,1-1.663-2.39,8.722,8.722,0,0,1-2.355,1.041,2.593,2.593,0,0,1-2.1-.541,1.238,1.238,0,0,1,.076-1.837c.826-.64,2.622-.081,3.4.442.052.035.7.581.924.8v-.029a16.15,16.15,0,0,1-1.163-2.6,22.206,22.206,0,0,1-.721-2.454c-.186-.767-.308-1.488-.413-2.122-.052-.343-.1-.657-.134-.954h0s-.669-1.07-.7-1.163c-.39-.849-.634-2.715.14-3.413a1.233,1.233,0,0,1,1.82.233,2.582,2.582,0,0,1,.174,2.163,8.14,8.14,0,0,1-1.384,2.1c.047.308.1.634.157.994.122.628.256,1.337.459,2.1.052.2.122.424.18.634,0-.378-.058-.9-.052-.948.047-.93.686-2.7,1.7-2.965a1.233,1.233,0,0,1,1.506,1.052,2.57,2.57,0,0,1-.837,2,8.3,8.3,0,0,1-2.209,1.227c.14.465.3.942.483,1.425a15.913,15.913,0,0,0,1.227,2.547l.093.14c-.047-.186-.221-1.209-.227-1.285-.052-.93.39-2.756,1.361-3.134a1.233,1.233,0,0,1,1.616.878,2.57,2.57,0,0,1-.616,2.082,8.721,8.721,0,0,1-2.111,1.488,20.856,20.856,0,0,0,1.663,2.279c.442.535.913,1.064,1.4,1.587-.058-.238-.221-1.2-.227-1.268-.052-.93.39-2.756,1.366-3.134a1.233,1.233,0,0,1,1.611.878A2.57,2.57,0,0,1,383,219a8.426,8.426,0,0,1-2.1,1.483l.576.773c.715.768,1.436,1.541,2.128,2.326.238.267.459.547.686.82-.07-.366-.18-1.029-.186-1.087-.052-.93.39-2.756,1.366-3.134a1.233,1.233,0,0,1,1.611.878,2.587,2.587,0,0,1-.611,2.082,8.186,8.186,0,0,1-2.023,1.442c.372.459.733.93,1.07,1.4.134.209.291.413.413.622l.384.611c.244.424.471.826.686,1.227.116.2.215.4.32.581-.128-.36-.314-.93-.326-.983-.2-.913-.035-2.785.872-3.308a1.238,1.238,0,0,1,1.744.622,2.582,2.582,0,0,1-.291,2.151,8.379,8.379,0,0,1-1.843,1.779c.256.488.5.965.721,1.419.7,1.425,1.233,2.64,1.593,3.489s.547,1.355.547,1.355h0a.372.372,0,0,1-.227.465.366.366,0,0,1-.465-.227S389.459,235.306,389.151,234.451Z" transform="translate(-186.631 -187.295)" fill="#78c891"/>
          <path id="Path_611" data-name="Path 611" d="M374.588,216.9a8.675,8.675,0,0,1-2.564.39,2.547,2.547,0,0,1-1.89-1.076,1.238,1.238,0,0,1,.581-1.744c.965-.4,2.547.611,3.157,1.32C373.9,215.852,374.606,216.9,374.588,216.9Z" transform="translate(-185.494 -191.832)" fill="#78c891"/>
          <path id="Path_612" data-name="Path 612" d="M396.962,221.766c.157-1.238.361-3.012.506-5.146.041-.616.076-1.268.1-1.942a11.452,11.452,0,0,1-3.384-.82,3.392,3.392,0,0,1-1.82-2.326,1.68,1.68,0,0,1,1.6-1.919c1.419,0,2.907,2.076,3.291,3.279.029.081.227,1.023.32,1.506,0-.4.029-.808.041-1.233v-1.872c0-.326,0-.651-.029-.983s-.047-.651-.07-.977c-.041-.488-.11-.983-.174-1.477a11.225,11.225,0,0,1-3.3-.308,3.544,3.544,0,0,1-2.151-2.023,1.68,1.68,0,0,1,1.291-2.14c1.4-.227,3.18,1.616,3.756,2.75,0,.035.116.285.227.581-.076-.483-.157-.965-.256-1.454q-.41-2.067-.919-4.169l-.192-.878a11.757,11.757,0,0,1-3.384-.3,3.5,3.5,0,0,1-2.157-2.023,1.68,1.68,0,0,1,1.3-2.14c1.4-.227,3.175,1.616,3.75,2.75,0,.041.14.337.262.674-.163-.762-.314-1.523-.442-2.285a29.937,29.937,0,0,1-.413-3.948,11.99,11.99,0,0,1-3.489-.3,3.51,3.51,0,0,1-2.157-2.023,1.68,1.68,0,0,1,1.3-2.14c1.4-.227,3.18,1.616,3.756,2.744.041.081.448,1.163.581,1.564v-.047a22.019,22.019,0,0,1,.3-3.884,29.479,29.479,0,0,1,.75-3.4q.427-1.561.9-2.8c.163-.442.32-.849.471-1.227H397.1c-.029,0-.093-1.715-.081-1.82.093-1.268,1.023-3.651,2.4-3.983a1.686,1.686,0,0,1,2.023,1.477,3.529,3.529,0,0,1-1.209,2.7A11.33,11.33,0,0,1,397.2,181.4c-.145.4-.3.82-.459,1.285-.273.831-.581,1.744-.831,2.808-.07.279-.134.581-.2.872a11.3,11.3,0,0,1,.581-1.163c.669-1.076,2.593-2.768,3.971-2.425a1.686,1.686,0,0,1,1.111,2.239,3.5,3.5,0,0,1-2.326,1.837,11.271,11.271,0,0,1-3.442,0c-.134.645-.262,1.314-.355,2.018a21.236,21.236,0,0,0-.2,3.843c0,.07,0,.145,0,.221.064-.25.529-1.587.581-1.68.547-1.163,2.273-3.029,3.68-2.843a1.68,1.68,0,0,1,1.349,2.1,3.521,3.521,0,0,1-2.1,2.082,11.937,11.937,0,0,1-3.489.39,29.167,29.167,0,0,0,.488,3.808c.174.93.4,1.866.622,2.8.093-.32.523-1.564.581-1.651.547-1.163,2.273-3.035,3.681-2.849a1.686,1.686,0,0,1,1.349,2.1,3.505,3.505,0,0,1-2.1,2.082,11.7,11.7,0,0,1-3.489.39c.1.43.2.855.314,1.279.349,1.39.7,2.779,1.012,4.169.1.477.192.954.285,1.43.157-.477.453-1.343.488-1.413.547-1.163,2.273-3.035,3.68-2.849a1.686,1.686,0,0,1,1.349,2.1,3.521,3.521,0,0,1-2.1,2.082,11.061,11.061,0,0,1-3.355.4c.145.791.267,1.582.355,2.366.029.343.081.686.093,1.012l.052.983v2.832c.081-.506.233-1.308.25-1.384.366-1.209,1.791-3.343,3.21-3.367a1.675,1.675,0,0,1,1.651,1.872,3.547,3.547,0,0,1-1.744,2.378,12.482,12.482,0,0,1-3.355.913c0,.744-.035,1.477-.07,2.157-.1,2.163-.262,3.954-.4,5.233s-.238,1.977-.238,1.977h0a.5.5,0,1,1-.983-.163S396.805,222.987,396.962,221.766Z" transform="translate(-193.46 -175.598)" fill="#78c891"/>
          <path id="Path_613" data-name="Path 613" d="M396.62,190.639a12.141,12.141,0,0,1-3.32-1.221,3.526,3.526,0,0,1-1.541-2.518,1.68,1.68,0,0,1,1.814-1.744c1.407.151,2.634,2.4,2.907,3.64C396.486,188.924,396.643,190.645,396.62,190.639Z" transform="translate(-194.612 -179.597)" fill="#78c891"/>
          <g id="Group_87" data-name="Group 87" transform="translate(184.48)" opacity="0.4">
            <path id="Path_614" data-name="Path 614" d="M403.4,227.7c.756-.994,1.82-2.425,3.023-4.2.343-.512.7-1.058,1.064-1.622a11.7,11.7,0,0,1-2.506-2.413,3.351,3.351,0,0,1-.407-2.907,1.686,1.686,0,0,1,2.355-.855c1.233.7,1.454,3.256,1.192,4.495,0,.081-.32.994-.483,1.459.215-.343.436-.68.657-1.041.32-.517.645-1.07.965-1.611l.465-.861c.163-.291.285-.581.436-.884.2-.436.4-.9.581-1.366a9.949,9.949,0,0,1-2.692-1.919,3.6,3.6,0,0,1-.843-2.832,1.675,1.675,0,0,1,2.192-1.2c1.326.512,1.936,2.994,1.866,4.262,0,.041-.047.308-.1.622.174-.459.349-.913.506-1.384.454-1.326.878-2.692,1.308-4.07.087-.285.18-.581.273-.855a10.935,10.935,0,0,1-2.773-1.965,3.505,3.505,0,0,1-.849-2.832,1.686,1.686,0,0,1,2.2-1.2c1.326.512,1.93,2.994,1.861,4.262,0,.047-.052.36-.116.715.244-.738.5-1.477.773-2.2a29.559,29.559,0,0,1,1.622-3.617,11.5,11.5,0,0,1-2.861-2.018,3.477,3.477,0,0,1-.843-2.832,1.68,1.68,0,0,1,2.192-1.2c1.326.512,1.93,3,1.861,4.262,0,.093-.2,1.238-.279,1.645v-.041a22.091,22.091,0,0,1,2.209-3.21,27.678,27.678,0,0,1,2.361-2.558c.767-.762,1.512-1.4,2.18-1.971.366-.3.7-.581,1.023-.82h-.035s.785-1.529.849-1.616c.721-1.047,2.721-2.64,4.07-2.233a1.675,1.675,0,0,1,1,2.291,3.6,3.6,0,0,1-2.4,1.744,10.839,10.839,0,0,1-3.419-.145c-.326.267-.669.552-1.047.878-.651.581-1.384,1.238-2.128,2.012-.2.2-.407.43-.61.651.419-.3,1-.7,1.058-.727,1.122-.581,3.634-1.087,4.651-.1a1.675,1.675,0,0,1-.163,2.494,3.488,3.488,0,0,1-2.907.424,11.24,11.24,0,0,1-2.983-1.744c-.442.488-.89,1-1.32,1.564a21.192,21.192,0,0,0-2.111,3.215c-.035.064-.064.14-.1.2.186-.18,1.256-1.111,1.337-1.163,1.047-.715,3.489-1.483,4.617-.611a1.686,1.686,0,0,1,.1,2.5,3.516,3.516,0,0,1-2.861.738,11.785,11.785,0,0,1-3.215-1.419,30.132,30.132,0,0,0-1.494,3.535c-.314.9-.581,1.814-.872,2.739.244-.233,1.238-1.093,1.32-1.163,1.047-.715,3.489-1.483,4.611-.581a1.68,1.68,0,0,1,.1,2.5,3.49,3.49,0,0,1-2.861.738,11.679,11.679,0,0,1-3.2-1.407c-.128.419-.25.837-.372,1.262-.4,1.372-.791,2.756-1.221,4.111-.151.465-.314.919-.477,1.378.378-.331,1.07-.93,1.134-.977,1.047-.715,3.489-1.477,4.611-.581a1.68,1.68,0,0,1,.11,2.494,3.519,3.519,0,0,1-2.861.744,10.94,10.94,0,0,1-3.1-1.349c-.273.756-.581,1.506-.884,2.227-.145.308-.273.634-.43.919l-.448.872c-.326.581-.628,1.163-.948,1.669-.157.273-.314.523-.471.785.326-.4.855-1.018.913-1.064.924-.866,3.227-1.994,4.465-1.3a1.686,1.686,0,0,1,.488,2.454,3.53,3.53,0,0,1-2.715,1.163,11.519,11.519,0,0,1-3.367-.9c-.39.645-.773,1.262-1.163,1.837-1.163,1.814-2.215,3.285-2.96,4.3s-1.2,1.587-1.2,1.587h0a.5.5,0,0,1-.768-.64S402.633,228.688,403.4,227.7Z" transform="translate(-383.402 -181.224)" fill="#fff"/>
            <path id="Path_615" data-name="Path 615" d="M430.62,197.283a12.043,12.043,0,0,1-2.256-2.721,3.48,3.48,0,0,1-.064-2.954,1.68,1.68,0,0,1,2.43-.581c1.163.843,1.076,3.4.674,4.6C431.37,195.765,430.637,197.323,430.62,197.283Z" transform="translate(-394.259 -181.932)" fill="#fff"/>
            <path id="Path_616" data-name="Path 616" d="M389.151,234.451c-.337-.849-.831-2.064-1.5-3.489-.186-.413-.4-.849-.616-1.291a8.477,8.477,0,0,1-2.471.669,2.57,2.57,0,0,1-1.994-.855,1.233,1.233,0,0,1,.355-1.8c.907-.512,2.6.314,3.285.948.041.041.506.581.733.861-.134-.267-.262-.535-.407-.808-.2-.4-.43-.814-.651-1.221l-.366-.616c-.116-.215-.262-.407-.39-.611-.2-.3-.419-.581-.64-.89a7.722,7.722,0,0,1-2.227.971,2.576,2.576,0,0,1-2.1-.541,1.238,1.238,0,0,1,.076-1.837c.826-.64,2.622-.081,3.39.442a2.777,2.777,0,0,1,.355.3c-.221-.279-.442-.581-.674-.843-.669-.791-1.366-1.57-2.07-2.361l-.436-.494a8.257,8.257,0,0,1-2.285,1.006,2.616,2.616,0,0,1-2.1-.541,1.233,1.233,0,0,1,.076-1.837c.82-.64,2.616-.087,3.39.436l.407.349c-.372-.436-.738-.872-1.093-1.32a21.271,21.271,0,0,1-1.663-2.39,8.722,8.722,0,0,1-2.355,1.041,2.593,2.593,0,0,1-2.1-.541,1.238,1.238,0,0,1,.076-1.837c.826-.64,2.622-.081,3.4.442.052.035.7.581.924.8v-.029a16.15,16.15,0,0,1-1.163-2.6,22.206,22.206,0,0,1-.721-2.454c-.186-.767-.308-1.488-.413-2.122-.052-.343-.1-.657-.134-.954h0s-.669-1.07-.7-1.163c-.39-.849-.634-2.715.14-3.413a1.233,1.233,0,0,1,1.82.233,2.582,2.582,0,0,1,.174,2.163,8.14,8.14,0,0,1-1.384,2.1c.047.308.1.634.157.994.122.628.256,1.337.459,2.1.052.2.122.424.18.634,0-.378-.058-.9-.052-.948.047-.93.686-2.7,1.7-2.965a1.233,1.233,0,0,1,1.506,1.052,2.57,2.57,0,0,1-.837,2,8.3,8.3,0,0,1-2.209,1.227c.14.465.3.942.483,1.425a15.913,15.913,0,0,0,1.227,2.547l.093.14c-.047-.186-.221-1.209-.227-1.285-.052-.93.39-2.756,1.361-3.134a1.233,1.233,0,0,1,1.616.878,2.57,2.57,0,0,1-.616,2.082,8.721,8.721,0,0,1-2.111,1.488,20.856,20.856,0,0,0,1.663,2.279c.442.535.913,1.064,1.4,1.587-.058-.238-.221-1.2-.227-1.268-.052-.93.39-2.756,1.366-3.134a1.233,1.233,0,0,1,1.611.878A2.57,2.57,0,0,1,383,219a8.426,8.426,0,0,1-2.1,1.483l.576.773c.715.768,1.436,1.541,2.128,2.326.238.267.459.547.686.82-.07-.366-.18-1.029-.186-1.087-.052-.93.39-2.756,1.366-3.134a1.233,1.233,0,0,1,1.611.878,2.587,2.587,0,0,1-.611,2.082,8.186,8.186,0,0,1-2.023,1.442c.372.459.733.93,1.07,1.4.134.209.291.413.413.622l.384.611c.244.424.471.826.686,1.227.116.2.215.4.32.581-.128-.36-.314-.93-.326-.983-.2-.913-.035-2.785.872-3.308a1.238,1.238,0,0,1,1.744.622,2.582,2.582,0,0,1-.291,2.151,8.379,8.379,0,0,1-1.843,1.779c.256.488.5.965.721,1.419.7,1.425,1.233,2.64,1.593,3.489s.547,1.355.547,1.355h0a.372.372,0,0,1-.227.465.366.366,0,0,1-.465-.227S389.459,235.306,389.151,234.451Z" transform="translate(-371.111 -187.296)" fill="#fff"/>
            <path id="Path_617" data-name="Path 617" d="M374.588,216.9a8.675,8.675,0,0,1-2.564.39,2.547,2.547,0,0,1-1.89-1.076,1.238,1.238,0,0,1,.581-1.744c.965-.4,2.547.611,3.157,1.32C373.9,215.852,374.606,216.9,374.588,216.9Z" transform="translate(-369.974 -191.832)" fill="#fff"/>
            <path id="Path_618" data-name="Path 618" d="M396.962,221.766c.157-1.238.361-3.012.506-5.146.041-.616.076-1.268.1-1.942a11.452,11.452,0,0,1-3.384-.82,3.392,3.392,0,0,1-1.82-2.326,1.68,1.68,0,0,1,1.6-1.919c1.419,0,2.907,2.076,3.291,3.279.029.081.227,1.023.32,1.506,0-.4.029-.808.041-1.233v-1.872c0-.326,0-.651-.029-.983s-.047-.651-.07-.977c-.041-.488-.11-.983-.174-1.477a11.225,11.225,0,0,1-3.3-.308,3.544,3.544,0,0,1-2.151-2.023,1.68,1.68,0,0,1,1.291-2.14c1.4-.227,3.18,1.616,3.756,2.75,0,.035.116.285.227.581-.076-.483-.157-.965-.256-1.454q-.41-2.067-.919-4.169l-.192-.878a11.757,11.757,0,0,1-3.384-.3,3.5,3.5,0,0,1-2.157-2.023,1.68,1.68,0,0,1,1.3-2.14c1.4-.227,3.175,1.616,3.75,2.75,0,.041.14.337.262.674-.163-.762-.314-1.523-.442-2.285a29.937,29.937,0,0,1-.413-3.948,11.99,11.99,0,0,1-3.489-.3,3.51,3.51,0,0,1-2.157-2.023,1.68,1.68,0,0,1,1.3-2.14c1.4-.227,3.18,1.616,3.756,2.744.041.081.448,1.163.581,1.564v-.047a22.019,22.019,0,0,1,.3-3.884,29.479,29.479,0,0,1,.75-3.4q.427-1.561.9-2.8c.163-.442.32-.849.471-1.227H397.1c-.029,0-.093-1.715-.081-1.82.093-1.268,1.023-3.651,2.4-3.983a1.686,1.686,0,0,1,2.023,1.477,3.529,3.529,0,0,1-1.209,2.7A11.33,11.33,0,0,1,397.2,181.4c-.145.4-.3.82-.459,1.285-.273.831-.581,1.744-.831,2.808-.07.279-.134.581-.2.872a11.3,11.3,0,0,1,.581-1.163c.669-1.076,2.593-2.768,3.971-2.425a1.686,1.686,0,0,1,1.111,2.239,3.5,3.5,0,0,1-2.326,1.837,11.271,11.271,0,0,1-3.442,0c-.134.645-.262,1.314-.355,2.018a21.236,21.236,0,0,0-.2,3.843c0,.07,0,.145,0,.221.064-.25.529-1.587.581-1.68.547-1.163,2.273-3.029,3.68-2.843a1.68,1.68,0,0,1,1.349,2.1,3.521,3.521,0,0,1-2.1,2.082,11.937,11.937,0,0,1-3.489.39,29.167,29.167,0,0,0,.488,3.808c.174.93.4,1.866.622,2.8.093-.32.523-1.564.581-1.651.547-1.163,2.273-3.035,3.681-2.849a1.686,1.686,0,0,1,1.349,2.1,3.505,3.505,0,0,1-2.1,2.082,11.7,11.7,0,0,1-3.489.39c.1.43.2.855.314,1.279.349,1.39.7,2.779,1.012,4.169.1.477.192.954.285,1.43.157-.477.453-1.343.488-1.413.547-1.163,2.273-3.035,3.68-2.849a1.686,1.686,0,0,1,1.349,2.1,3.521,3.521,0,0,1-2.1,2.082,11.061,11.061,0,0,1-3.355.4c.145.791.267,1.582.355,2.366.029.343.081.686.093,1.012l.052.983v2.832c.081-.506.233-1.308.25-1.384.366-1.209,1.791-3.343,3.21-3.367a1.675,1.675,0,0,1,1.651,1.872,3.547,3.547,0,0,1-1.744,2.378,12.482,12.482,0,0,1-3.355.913c0,.744-.035,1.477-.07,2.157-.1,2.163-.262,3.954-.4,5.233s-.238,1.977-.238,1.977h0a.5.5,0,1,1-.983-.163S396.805,222.987,396.962,221.766Z" transform="translate(-377.94 -175.598)" fill="#fff"/>
            <path id="Path_619" data-name="Path 619" d="M396.62,190.639a12.141,12.141,0,0,1-3.32-1.221,3.526,3.526,0,0,1-1.541-2.518,1.68,1.68,0,0,1,1.814-1.744c1.407.151,2.634,2.4,2.907,3.64C396.486,188.924,396.643,190.645,396.62,190.639Z" transform="translate(-379.092 -179.596)" fill="#fff"/>
            <path id="Path_620" data-name="Path 620" d="M403.4,227.7c.756-.994,1.82-2.425,3.023-4.2.343-.512.7-1.058,1.064-1.622a11.7,11.7,0,0,1-2.506-2.413,3.351,3.351,0,0,1-.407-2.907,1.686,1.686,0,0,1,2.355-.855c1.233.7,1.454,3.256,1.192,4.495,0,.081-.32.994-.483,1.459.215-.343.436-.68.657-1.041.32-.517.645-1.07.965-1.611l.465-.861c.163-.291.285-.581.436-.884.2-.436.4-.9.581-1.366a9.949,9.949,0,0,1-2.692-1.919,3.6,3.6,0,0,1-.843-2.832,1.675,1.675,0,0,1,2.192-1.2c1.326.512,1.936,2.994,1.866,4.262,0,.041-.047.308-.1.622.174-.459.349-.913.506-1.384.454-1.326.878-2.692,1.308-4.07.087-.285.18-.581.273-.855a10.935,10.935,0,0,1-2.773-1.965,3.505,3.505,0,0,1-.849-2.832,1.686,1.686,0,0,1,2.2-1.2c1.326.512,1.93,2.994,1.861,4.262,0,.047-.052.36-.116.715.244-.738.5-1.477.773-2.2a29.559,29.559,0,0,1,1.622-3.617,11.5,11.5,0,0,1-2.861-2.018,3.477,3.477,0,0,1-.843-2.832,1.68,1.68,0,0,1,2.192-1.2c1.326.512,1.93,3,1.861,4.262,0,.093-.2,1.238-.279,1.645v-.041a22.091,22.091,0,0,1,2.209-3.21,27.678,27.678,0,0,1,2.361-2.558c.767-.762,1.512-1.4,2.18-1.971.366-.3.7-.581,1.023-.82h-.035s.785-1.529.849-1.616c.721-1.047,2.721-2.64,4.07-2.233a1.675,1.675,0,0,1,1,2.291,3.6,3.6,0,0,1-2.4,1.744,10.839,10.839,0,0,1-3.419-.145c-.326.267-.669.552-1.047.878-.651.581-1.384,1.238-2.128,2.012-.2.2-.407.43-.61.651.419-.3,1-.7,1.058-.727,1.122-.581,3.634-1.087,4.651-.1a1.675,1.675,0,0,1-.163,2.494,3.488,3.488,0,0,1-2.907.424,11.24,11.24,0,0,1-2.983-1.744c-.442.488-.89,1-1.32,1.564a21.192,21.192,0,0,0-2.111,3.215c-.035.064-.064.14-.1.2.186-.18,1.256-1.111,1.337-1.163,1.047-.715,3.489-1.483,4.617-.611a1.686,1.686,0,0,1,.1,2.5,3.516,3.516,0,0,1-2.861.738,11.785,11.785,0,0,1-3.215-1.419,30.132,30.132,0,0,0-1.494,3.535c-.314.9-.581,1.814-.872,2.739.244-.233,1.238-1.093,1.32-1.163,1.047-.715,3.489-1.483,4.611-.581a1.68,1.68,0,0,1,.1,2.5,3.49,3.49,0,0,1-2.861.738,11.679,11.679,0,0,1-3.2-1.407c-.128.419-.25.837-.372,1.262-.4,1.372-.791,2.756-1.221,4.111-.151.465-.314.919-.477,1.378.378-.331,1.07-.93,1.134-.977,1.047-.715,3.489-1.477,4.611-.581a1.68,1.68,0,0,1,.11,2.494,3.519,3.519,0,0,1-2.861.744,10.94,10.94,0,0,1-3.1-1.349c-.273.756-.581,1.506-.884,2.227-.145.308-.273.634-.43.919l-.448.872c-.326.581-.628,1.163-.948,1.669-.157.273-.314.523-.471.785.326-.4.855-1.018.913-1.064.924-.866,3.227-1.994,4.465-1.3a1.686,1.686,0,0,1,.488,2.454,3.53,3.53,0,0,1-2.715,1.163,11.519,11.519,0,0,1-3.367-.9c-.39.645-.773,1.262-1.163,1.837-1.163,1.814-2.215,3.285-2.96,4.3s-1.2,1.587-1.2,1.587h0a.5.5,0,0,1-.768-.64S402.633,228.688,403.4,227.7Z" transform="translate(-383.402 -181.224)" fill="#fff"/>
            <path id="Path_621" data-name="Path 621" d="M430.62,197.283a12.043,12.043,0,0,1-2.256-2.721,3.48,3.48,0,0,1-.064-2.954,1.68,1.68,0,0,1,2.43-.581c1.163.843,1.076,3.4.674,4.6C431.37,195.765,430.637,197.323,430.62,197.283Z" transform="translate(-394.259 -181.932)" fill="#fff"/>
            <path id="Path_622" data-name="Path 622" d="M389.151,234.451c-.337-.849-.831-2.064-1.5-3.489-.186-.413-.4-.849-.616-1.291a8.477,8.477,0,0,1-2.471.669,2.57,2.57,0,0,1-1.994-.855,1.233,1.233,0,0,1,.355-1.8c.907-.512,2.6.314,3.285.948.041.041.506.581.733.861-.134-.267-.262-.535-.407-.808-.2-.4-.43-.814-.651-1.221l-.366-.616c-.116-.215-.262-.407-.39-.611-.2-.3-.419-.581-.64-.89a7.722,7.722,0,0,1-2.227.971,2.576,2.576,0,0,1-2.1-.541,1.238,1.238,0,0,1,.076-1.837c.826-.64,2.622-.081,3.39.442a2.777,2.777,0,0,1,.355.3c-.221-.279-.442-.581-.674-.843-.669-.791-1.366-1.57-2.07-2.361l-.436-.494a8.257,8.257,0,0,1-2.285,1.006,2.616,2.616,0,0,1-2.1-.541,1.233,1.233,0,0,1,.076-1.837c.82-.64,2.616-.087,3.39.436l.407.349c-.372-.436-.738-.872-1.093-1.32a21.271,21.271,0,0,1-1.663-2.39,8.722,8.722,0,0,1-2.355,1.041,2.593,2.593,0,0,1-2.1-.541,1.238,1.238,0,0,1,.076-1.837c.826-.64,2.622-.081,3.4.442.052.035.7.581.924.8v-.029a16.15,16.15,0,0,1-1.163-2.6,22.206,22.206,0,0,1-.721-2.454c-.186-.767-.308-1.488-.413-2.122-.052-.343-.1-.657-.134-.954h0s-.669-1.07-.7-1.163c-.39-.849-.634-2.715.14-3.413a1.233,1.233,0,0,1,1.82.233,2.582,2.582,0,0,1,.174,2.163,8.14,8.14,0,0,1-1.384,2.1c.047.308.1.634.157.994.122.628.256,1.337.459,2.1.052.2.122.424.18.634,0-.378-.058-.9-.052-.948.047-.93.686-2.7,1.7-2.965a1.233,1.233,0,0,1,1.506,1.052,2.57,2.57,0,0,1-.837,2,8.3,8.3,0,0,1-2.209,1.227c.14.465.3.942.483,1.425a15.913,15.913,0,0,0,1.227,2.547l.093.14c-.047-.186-.221-1.209-.227-1.285-.052-.93.39-2.756,1.361-3.134a1.233,1.233,0,0,1,1.616.878,2.57,2.57,0,0,1-.616,2.082,8.721,8.721,0,0,1-2.111,1.488,20.856,20.856,0,0,0,1.663,2.279c.442.535.913,1.064,1.4,1.587-.058-.238-.221-1.2-.227-1.268-.052-.93.39-2.756,1.366-3.134a1.233,1.233,0,0,1,1.611.878A2.57,2.57,0,0,1,383,219a8.426,8.426,0,0,1-2.1,1.483l.576.773c.715.768,1.436,1.541,2.128,2.326.238.267.459.547.686.82-.07-.366-.18-1.029-.186-1.087-.052-.93.39-2.756,1.366-3.134a1.233,1.233,0,0,1,1.611.878,2.587,2.587,0,0,1-.611,2.082,8.186,8.186,0,0,1-2.023,1.442c.372.459.733.93,1.07,1.4.134.209.291.413.413.622l.384.611c.244.424.471.826.686,1.227.116.2.215.4.32.581-.128-.36-.314-.93-.326-.983-.2-.913-.035-2.785.872-3.308a1.238,1.238,0,0,1,1.744.622,2.582,2.582,0,0,1-.291,2.151,8.379,8.379,0,0,1-1.843,1.779c.256.488.5.965.721,1.419.7,1.425,1.233,2.64,1.593,3.489s.547,1.355.547,1.355h0a.372.372,0,0,1-.227.465.366.366,0,0,1-.465-.227S389.459,235.306,389.151,234.451Z" transform="translate(-371.111 -187.296)" fill="#fff"/>
            <path id="Path_623" data-name="Path 623" d="M374.588,216.9a8.675,8.675,0,0,1-2.564.39,2.547,2.547,0,0,1-1.89-1.076,1.238,1.238,0,0,1,.581-1.744c.965-.4,2.547.611,3.157,1.32C373.9,215.852,374.606,216.9,374.588,216.9Z" transform="translate(-369.974 -191.832)" fill="#fff"/>
            <path id="Path_624" data-name="Path 624" d="M396.962,221.766c.157-1.238.361-3.012.506-5.146.041-.616.076-1.268.1-1.942a11.452,11.452,0,0,1-3.384-.82,3.392,3.392,0,0,1-1.82-2.326,1.68,1.68,0,0,1,1.6-1.919c1.419,0,2.907,2.076,3.291,3.279.029.081.227,1.023.32,1.506,0-.4.029-.808.041-1.233v-1.872c0-.326,0-.651-.029-.983s-.047-.651-.07-.977c-.041-.488-.11-.983-.174-1.477a11.225,11.225,0,0,1-3.3-.308,3.544,3.544,0,0,1-2.151-2.023,1.68,1.68,0,0,1,1.291-2.14c1.4-.227,3.18,1.616,3.756,2.75,0,.035.116.285.227.581-.076-.483-.157-.965-.256-1.454q-.41-2.067-.919-4.169l-.192-.878a11.757,11.757,0,0,1-3.384-.3,3.5,3.5,0,0,1-2.157-2.023,1.68,1.68,0,0,1,1.3-2.14c1.4-.227,3.175,1.616,3.75,2.75,0,.041.14.337.262.674-.163-.762-.314-1.523-.442-2.285a29.937,29.937,0,0,1-.413-3.948,11.99,11.99,0,0,1-3.489-.3,3.51,3.51,0,0,1-2.157-2.023,1.68,1.68,0,0,1,1.3-2.14c1.4-.227,3.18,1.616,3.756,2.744.041.081.448,1.163.581,1.564v-.047a22.019,22.019,0,0,1,.3-3.884,29.479,29.479,0,0,1,.75-3.4q.427-1.561.9-2.8c.163-.442.32-.849.471-1.227H397.1c-.029,0-.093-1.715-.081-1.82.093-1.268,1.023-3.651,2.4-3.983a1.686,1.686,0,0,1,2.023,1.477,3.529,3.529,0,0,1-1.209,2.7A11.33,11.33,0,0,1,397.2,181.4c-.145.4-.3.82-.459,1.285-.273.831-.581,1.744-.831,2.808-.07.279-.134.581-.2.872a11.3,11.3,0,0,1,.581-1.163c.669-1.076,2.593-2.768,3.971-2.425a1.686,1.686,0,0,1,1.111,2.239,3.5,3.5,0,0,1-2.326,1.837,11.271,11.271,0,0,1-3.442,0c-.134.645-.262,1.314-.355,2.018a21.236,21.236,0,0,0-.2,3.843c0,.07,0,.145,0,.221.064-.25.529-1.587.581-1.68.547-1.163,2.273-3.029,3.68-2.843a1.68,1.68,0,0,1,1.349,2.1,3.521,3.521,0,0,1-2.1,2.082,11.937,11.937,0,0,1-3.489.39,29.167,29.167,0,0,0,.488,3.808c.174.93.4,1.866.622,2.8.093-.32.523-1.564.581-1.651.547-1.163,2.273-3.035,3.681-2.849a1.686,1.686,0,0,1,1.349,2.1,3.505,3.505,0,0,1-2.1,2.082,11.7,11.7,0,0,1-3.489.39c.1.43.2.855.314,1.279.349,1.39.7,2.779,1.012,4.169.1.477.192.954.285,1.43.157-.477.453-1.343.488-1.413.547-1.163,2.273-3.035,3.68-2.849a1.686,1.686,0,0,1,1.349,2.1,3.521,3.521,0,0,1-2.1,2.082,11.061,11.061,0,0,1-3.355.4c.145.791.267,1.582.355,2.366.029.343.081.686.093,1.012l.052.983v2.832c.081-.506.233-1.308.25-1.384.366-1.209,1.791-3.343,3.21-3.367a1.675,1.675,0,0,1,1.651,1.872,3.547,3.547,0,0,1-1.744,2.378,12.482,12.482,0,0,1-3.355.913c0,.744-.035,1.477-.07,2.157-.1,2.163-.262,3.954-.4,5.233s-.238,1.977-.238,1.977h0a.5.5,0,1,1-.983-.163S396.805,222.987,396.962,221.766Z" transform="translate(-377.94 -175.598)" fill="#fff"/>
            <path id="Path_625" data-name="Path 625" d="M396.62,190.639a12.141,12.141,0,0,1-3.32-1.221,3.526,3.526,0,0,1-1.541-2.518,1.68,1.68,0,0,1,1.814-1.744c1.407.151,2.634,2.4,2.907,3.64C396.486,188.924,396.643,190.645,396.62,190.639Z" transform="translate(-379.092 -179.596)" fill="#fff"/>
          </g>
        </g>
        <g id="Group_89" data-name="Group 89" transform="translate(24 16)">
          <path id="Path_626" data-name="Path 626" d="M101.783,237.223c-.372-1.192-.93-2.907-1.686-4.89-.215-.581-.454-1.163-.709-1.808a11.618,11.618,0,0,1-3.419.657,3.52,3.52,0,0,1-2.622-1.361,1.68,1.68,0,0,1,.663-2.413c1.285-.581,3.489.692,4.361,1.622.052.058.628.831.913,1.238l-.471-1.163c-.238-.581-.506-1.163-.762-1.715-.145-.291-.285-.581-.436-.884s-.308-.581-.465-.861c-.244-.424-.512-.849-.779-1.268a10.737,10.737,0,0,1-3.122,1.087,3.535,3.535,0,0,1-2.8-.942,1.686,1.686,0,0,1,.285-2.489c1.163-.785,3.564.151,4.558.942l.454.436c-.273-.4-.547-.808-.837-1.209-.826-1.163-1.7-2.273-2.57-3.413l-.541-.715a11.12,11.12,0,0,1-3.2,1.128,3.5,3.5,0,0,1-2.8-.942,1.68,1.68,0,0,1,.291-2.483c1.163-.791,3.564.151,4.553.936.041.029.267.256.523.506-.465-.622-.919-1.256-1.355-1.9a29.826,29.826,0,0,1-2.018-3.413,11.474,11.474,0,0,1-3.3,1.163,3.5,3.5,0,0,1-2.8-.942,1.675,1.675,0,0,1,.285-2.483c1.163-.791,3.564.145,4.558.936.07.052.9.878,1.163,1.163v-.041a21.867,21.867,0,0,1-1.355-3.6,29.176,29.176,0,0,1-.727-3.4c-.18-1.064-.273-2.047-.349-2.907-.041-.471-.064-.907-.087-1.308h0s-.8-1.518-.831-1.622c-.442-1.192-.581-3.744.535-4.652a1.68,1.68,0,0,1,2.448.506,3.436,3.436,0,0,1,0,2.954,12.92,12.92,0,0,1-2.087,2.7,13.579,13.579,0,0,0,.116,1.361c.093.866.209,1.849.407,2.907.052.285.122.581.18.878v-1.291c.157-1.256,1.2-3.593,2.6-3.855a1.68,1.68,0,0,1,1.942,1.576,3.49,3.49,0,0,1-1.343,2.634,11.622,11.622,0,0,1-3.117,1.442c.14.645.3,1.308.512,1.983a22.372,22.372,0,0,0,1.407,3.582c.035.064.081.128.116.192-.047-.25-.186-1.663-.18-1.744,0-1.268.8-3.7,2.163-4.117a1.686,1.686,0,0,1,2.1,1.355,3.522,3.522,0,0,1-1.047,2.762,11.346,11.346,0,0,1-3.018,1.808,29.568,29.568,0,0,0,2.029,3.262c.547.773,1.163,1.535,1.744,2.291-.047-.331-.174-1.645-.174-1.744,0-1.268.808-3.7,2.163-4.117a1.68,1.68,0,0,1,2.1,1.355,3.5,3.5,0,0,1-1.047,2.762,11.114,11.114,0,0,1-2.994,1.8l.814,1.029c.9,1.122,1.8,2.239,2.651,3.372.3.39.581.785.855,1.163-.058-.5-.145-1.407-.145-1.488,0-1.268.808-3.7,2.163-4.117a1.68,1.68,0,0,1,2.1,1.355,3.5,3.5,0,0,1-1.047,2.762A10.677,10.677,0,0,1,96.4,223.28c.465.663.907,1.326,1.314,2.006.163.3.355.581.5.884l.454.866c.291.581.581,1.163.814,1.744.134.285.25.581.372.837-.134-.494-.337-1.291-.343-1.361-.174-1.256.233-3.785,1.512-4.4a1.68,1.68,0,0,1,2.285,1.023,3.552,3.552,0,0,1-.616,2.907,12.17,12.17,0,0,1-2.675,2.227c.3.686.581,1.355.837,1.994.808,2,1.407,3.7,1.808,4.9s.581,1.89.581,1.89h0a.5.5,0,1,1-.959.256S102.149,238.415,101.783,237.223Z" transform="translate(-26.654 -181.253)" fill="#78c891"/>
          <path id="Path_627" data-name="Path 627" d="M84.684,211.836a11.944,11.944,0,0,1-3.524.273,3.494,3.494,0,0,1-2.448-1.651,1.675,1.675,0,0,1,.93-2.326c1.349-.448,3.4,1.087,4.146,2.111C83.852,210.348,84.707,211.83,84.684,211.836Z" transform="translate(-25.509 -187.183)" fill="#78c891"/>
          <path id="Path_628" data-name="Path 628" d="M91.444,266.882c-.89-.221-2.169-.512-3.715-.791-.448-.081-.924-.163-1.413-.238a8.326,8.326,0,0,1-.878,2.4,2.582,2.582,0,0,1-1.849,1.163,1.233,1.233,0,0,1-1.268-1.331c.11-1.035,1.744-1.942,2.669-2.134.058,0,.762-.081,1.128-.1l-.9-.134c-.442-.064-.913-.116-1.366-.174l-.715-.058a6.081,6.081,0,0,1-.727-.029H81.321a7.855,7.855,0,0,1-.5,2.378,2.553,2.553,0,0,1-1.651,1.407,1.233,1.233,0,0,1-1.459-1.122c-.047-1.041,1.448-2.186,2.326-2.512,0,0,.215-.064.448-.116-.36,0-.721.035-1.081.064-1.029.087-2.076.209-3.122.326l-.657.07a8.14,8.14,0,0,1-.5,2.448,2.582,2.582,0,0,1-1.651,1.407,1.238,1.238,0,0,1-1.459-1.122c-.047-1.041,1.442-2.186,2.326-2.512l.517-.14c-.581.058-1.163.1-1.7.14a22.167,22.167,0,0,1-2.907,0,8.419,8.419,0,0,1-.506,2.523,2.582,2.582,0,0,1-1.651,1.407,1.238,1.238,0,0,1-1.459-1.122c-.047-1.047,1.442-2.192,2.326-2.518.064,0,.9-.233,1.163-.3h-.035a16.191,16.191,0,0,1-2.814-.535,21.329,21.329,0,0,1-2.419-.831,20.765,20.765,0,0,1-1.971-.884l-.855-.442h0s-1.262-.076-1.337-.093c-.919-.174-2.582-1.047-2.71-2.087a1.233,1.233,0,0,1,1.244-1.349,2.57,2.57,0,0,1,1.866,1.1A8.14,8.14,0,0,1,62,263.37l.9.442a21.472,21.472,0,0,0,1.983.837c.2.076.413.145.622.215-.326-.192-.768-.465-.8-.5-.733-.581-1.808-2.116-1.448-3.1A1.233,1.233,0,0,1,65,260.643a2.553,2.553,0,0,1,1.163,1.837,8.262,8.262,0,0,1-.267,2.512c.459.157.936.3,1.442.43a16,16,0,0,0,2.785.465h.169a10.28,10.28,0,0,1-1.163-.581c-.791-.488-2.029-1.907-1.744-2.907a1.233,1.233,0,0,1,1.645-.814,2.6,2.6,0,0,1,1.349,1.7,8.751,8.751,0,0,1,0,2.587,21.839,21.839,0,0,0,2.727-.029c.7-.052,1.4-.134,2.1-.221-.233-.093-1.1-.512-1.163-.547-.791-.494-2.029-1.913-1.744-2.907a1.227,1.227,0,0,1,1.645-.808,2.558,2.558,0,0,1,1.343,1.7,8.635,8.635,0,0,1,0,2.57l.954-.122c1.047-.14,2.093-.285,3.128-.4.36-.041.715-.064,1.07-.093-.337-.151-.942-.442-.994-.471-.791-.494-2.029-1.913-1.744-2.907a1.233,1.233,0,0,1,1.645-.814,2.593,2.593,0,0,1,1.314,1.675,8.256,8.256,0,0,1,0,2.483c.581-.041,1.163-.07,1.744-.064h.744l.721.047c.488.047.942.087,1.4.145l.669.081c-.366-.1-.942-.273-.988-.3-.861-.366-2.326-1.582-2.2-2.622a1.238,1.238,0,0,1,1.506-1.052,2.582,2.582,0,0,1,1.587,1.483,8.461,8.461,0,0,1,.39,2.529c.547.07,1.076.145,1.576.227,1.564.25,2.866.518,3.768.715s1.425.337,1.425.337h0a.361.361,0,0,1,.25.453.372.372,0,0,1-.454.25S92.333,267.1,91.444,266.882Z" transform="translate(-16.901 -208.9)" fill="#78c891"/>
          <path id="Path_629" data-name="Path 629" d="M68.162,268.753A8.89,8.89,0,0,1,67,271.079a2.576,2.576,0,0,1-1.971.924,1.238,1.238,0,0,1-1.1-1.471c.227-1.018,1.965-1.744,2.907-1.814C66.9,268.706,68.168,268.736,68.162,268.753Z" transform="translate(-19.384 -212.573)" fill="#78c891"/>
          <path id="Path_630" data-name="Path 630" d="M89,248.133c-.919-.843-2.25-2.029-3.913-3.378-.477-.39-.994-.8-1.523-1.209a11.432,11.432,0,0,1-2.622,2.285,3.508,3.508,0,0,1-2.954.145,1.68,1.68,0,0,1-.64-2.413c.808-1.163,3.372-1.163,4.582-.8.076,0,.965.407,1.413.581-.32-.25-.64-.494-.983-.744-.483-.366-1.012-.738-1.518-1.1l-.82-.541c-.273-.186-.581-.337-.837-.512-.419-.244-.866-.471-1.308-.7a10.69,10.69,0,0,1-2.151,2.512,3.518,3.518,0,0,1-2.907.581,1.68,1.68,0,0,1-1-2.291c.622-1.279,3.157-1.663,4.407-1.483l.616.151c-.442-.209-.878-.424-1.331-.628-1.285-.581-2.611-1.111-3.936-1.657l-.831-.343a11.078,11.078,0,0,1-2.2,2.587,3.465,3.465,0,0,1-2.907.581,1.675,1.675,0,0,1-1-2.291c.622-1.273,3.151-1.663,4.407-1.483.047,0,.355.087.7.18-.715-.308-1.425-.622-2.122-.959a30.021,30.021,0,0,1-3.489-1.936,11.785,11.785,0,0,1-2.262,2.675,3.493,3.493,0,0,1-2.907.581,1.68,1.68,0,0,1-1-2.291c.628-1.279,3.157-1.663,4.413-1.483.087,0,1.215.308,1.611.424h-.041a21.357,21.357,0,0,1-2.936-2.442,29.03,29.03,0,0,1-2.326-2.576c-.686-.831-1.268-1.634-1.744-2.326-.273-.39-.512-.75-.733-1.093v.029s-1.454-.913-1.541-.983c-.977-.808-2.39-2.942-1.861-4.262a1.686,1.686,0,0,1,2.372-.8,3.527,3.527,0,0,1,1.5,2.541,11.612,11.612,0,0,1-.442,3.39c.233.349.488.715.785,1.116.517.7,1.111,1.494,1.808,2.326.186.221.4.442.581.669-.262-.448-.581-1.064-.628-1.122-.5-1.163-.768-3.715.308-4.652a1.68,1.68,0,0,1,2.471.384,3.5,3.5,0,0,1,.163,2.954,11.643,11.643,0,0,1-1.971,2.814c.448.488.924.977,1.442,1.459a22.17,22.17,0,0,0,3.018,2.384l.2.11c-.169-.2-.994-1.343-1.047-1.43-.616-1.111-1.163-3.611-.2-4.652a1.68,1.68,0,0,1,2.494.11,3.493,3.493,0,0,1,.488,2.907,11.833,11.833,0,0,1-1.692,3.082,29.693,29.693,0,0,0,3.39,1.8c.861.39,1.744.756,2.646,1.111-.209-.262-.977-1.331-1.023-1.413-.622-1.111-1.163-3.611-.2-4.652a1.686,1.686,0,0,1,2.5.11,3.493,3.493,0,0,1,.488,2.907,11.706,11.706,0,0,1-1.686,3.064l1.221.483c1.337.517,2.68,1.029,3.989,1.576.454.192.9.39,1.337.581-.3-.4-.837-1.163-.878-1.215-.616-1.1-1.163-3.6-.2-4.652a1.675,1.675,0,0,1,2.494.11,3.49,3.49,0,0,1,.488,2.907,11.3,11.3,0,0,1-1.616,2.971c.733.337,1.454.692,2.146,1.076.291.174.581.331.878.512l.831.523c.581.372,1.07.721,1.576,1.087.256.18.494.36.738.541-.366-.36-.936-.948-.983-1.006-.779-1-1.7-3.39-.9-4.564a1.686,1.686,0,0,1,2.489-.267,3.5,3.5,0,0,1,.919,2.808,12.551,12.551,0,0,1-1.163,3.268c.581.448,1.163.884,1.744,1.3,1.709,1.331,3.082,2.5,4.029,3.332s1.477,1.331,1.477,1.331h0a.5.5,0,1,1-.7.7S89.92,248.977,89,248.133Z" transform="translate(-14.692 -191.559)" fill="#78c891"/>
          <path id="Path_631" data-name="Path 631" d="M59.573,235.723a12.1,12.1,0,0,1-2.907,2.006,3.52,3.52,0,0,1-2.954-.2,1.68,1.68,0,0,1-.36-2.471c.942-1.064,3.489-.773,4.652-.267C58.1,234.839,59.59,235.705,59.573,235.723Z" transform="translate(-14.806 -198.184)" fill="#78c891"/>
          <g id="Group_88" data-name="Group 88" transform="translate(38 12.634)" opacity="0.4">
            <path id="Path_632" data-name="Path 632" d="M101.783,237.223c-.372-1.192-.93-2.907-1.686-4.89-.215-.581-.454-1.163-.709-1.808a11.618,11.618,0,0,1-3.419.657,3.52,3.52,0,0,1-2.622-1.361,1.68,1.68,0,0,1,.663-2.413c1.285-.581,3.489.692,4.361,1.622.052.058.628.831.913,1.238l-.471-1.163c-.238-.581-.506-1.163-.762-1.715-.145-.291-.285-.581-.436-.884s-.308-.581-.465-.861c-.244-.424-.512-.849-.779-1.268a10.737,10.737,0,0,1-3.122,1.087,3.535,3.535,0,0,1-2.8-.942,1.686,1.686,0,0,1,.285-2.489c1.163-.785,3.564.151,4.558.942l.454.436c-.273-.4-.547-.808-.837-1.209-.826-1.163-1.7-2.273-2.57-3.413l-.541-.715a11.12,11.12,0,0,1-3.2,1.128,3.5,3.5,0,0,1-2.8-.942,1.68,1.68,0,0,1,.291-2.483c1.163-.791,3.564.151,4.553.936.041.029.267.256.523.506-.465-.622-.919-1.256-1.355-1.9a29.826,29.826,0,0,1-2.018-3.413,11.474,11.474,0,0,1-3.3,1.163,3.5,3.5,0,0,1-2.8-.942,1.675,1.675,0,0,1,.285-2.483c1.163-.791,3.564.145,4.558.936.07.052.9.878,1.163,1.163v-.041a21.867,21.867,0,0,1-1.355-3.6,29.176,29.176,0,0,1-.727-3.4c-.18-1.064-.273-2.047-.349-2.907-.041-.471-.064-.907-.087-1.308h0s-.8-1.518-.831-1.622c-.442-1.192-.581-3.744.535-4.652a1.68,1.68,0,0,1,2.448.506,3.436,3.436,0,0,1,0,2.954,12.92,12.92,0,0,1-2.087,2.7,13.579,13.579,0,0,0,.116,1.361c.093.866.209,1.849.407,2.907.052.285.122.581.18.878v-1.291c.157-1.256,1.2-3.593,2.6-3.855a1.68,1.68,0,0,1,1.942,1.576,3.49,3.49,0,0,1-1.343,2.634,11.622,11.622,0,0,1-3.117,1.442c.14.645.3,1.308.512,1.983a22.372,22.372,0,0,0,1.407,3.582c.035.064.081.128.116.192-.047-.25-.186-1.663-.18-1.744,0-1.268.8-3.7,2.163-4.117a1.686,1.686,0,0,1,2.1,1.355,3.522,3.522,0,0,1-1.047,2.762,11.346,11.346,0,0,1-3.018,1.808,29.568,29.568,0,0,0,2.029,3.262c.547.773,1.163,1.535,1.744,2.291-.047-.331-.174-1.645-.174-1.744,0-1.268.808-3.7,2.163-4.117a1.68,1.68,0,0,1,2.1,1.355,3.5,3.5,0,0,1-1.047,2.762,11.114,11.114,0,0,1-2.994,1.8l.814,1.029c.9,1.122,1.8,2.239,2.651,3.372.3.39.581.785.855,1.163-.058-.5-.145-1.407-.145-1.488,0-1.268.808-3.7,2.163-4.117a1.68,1.68,0,0,1,2.1,1.355,3.5,3.5,0,0,1-1.047,2.762A10.677,10.677,0,0,1,96.4,223.28c.465.663.907,1.326,1.314,2.006.163.3.355.581.5.884l.454.866c.291.581.581,1.163.814,1.744.134.285.25.581.372.837-.134-.494-.337-1.291-.343-1.361-.174-1.256.233-3.785,1.512-4.4a1.68,1.68,0,0,1,2.285,1.023,3.552,3.552,0,0,1-.616,2.907,12.17,12.17,0,0,1-2.675,2.227c.3.686.581,1.355.837,1.994.808,2,1.407,3.7,1.808,4.9s.581,1.89.581,1.89h0a.5.5,0,1,1-.959.256S102.149,238.415,101.783,237.223Z" transform="translate(-64.654 -193.887)" fill="#fff"/>
            <path id="Path_633" data-name="Path 633" d="M84.684,211.836a11.944,11.944,0,0,1-3.524.273,3.494,3.494,0,0,1-2.448-1.651,1.675,1.675,0,0,1,.93-2.326c1.349-.448,3.4,1.087,4.146,2.111C83.852,210.348,84.707,211.83,84.684,211.836Z" transform="translate(-63.509 -199.816)" fill="#fff"/>
            <path id="Path_634" data-name="Path 634" d="M91.444,266.882c-.89-.221-2.169-.512-3.715-.791-.448-.081-.924-.163-1.413-.238a8.326,8.326,0,0,1-.878,2.4,2.582,2.582,0,0,1-1.849,1.163,1.233,1.233,0,0,1-1.268-1.331c.11-1.035,1.744-1.942,2.669-2.134.058,0,.762-.081,1.128-.1l-.9-.134c-.442-.064-.913-.116-1.366-.174l-.715-.058a6.081,6.081,0,0,1-.727-.029H81.321a7.855,7.855,0,0,1-.5,2.378,2.553,2.553,0,0,1-1.651,1.407,1.233,1.233,0,0,1-1.459-1.122c-.047-1.041,1.448-2.186,2.326-2.512,0,0,.215-.064.448-.116-.36,0-.721.035-1.081.064-1.029.087-2.076.209-3.122.326l-.657.07a8.14,8.14,0,0,1-.5,2.448,2.582,2.582,0,0,1-1.651,1.407,1.238,1.238,0,0,1-1.459-1.122c-.047-1.041,1.442-2.186,2.326-2.512l.517-.14c-.581.058-1.163.1-1.7.14a22.167,22.167,0,0,1-2.907,0,8.419,8.419,0,0,1-.506,2.523,2.582,2.582,0,0,1-1.651,1.407,1.238,1.238,0,0,1-1.459-1.122c-.047-1.047,1.442-2.192,2.326-2.518.064,0,.9-.233,1.163-.3h-.035a16.191,16.191,0,0,1-2.814-.535,21.329,21.329,0,0,1-2.419-.831,20.765,20.765,0,0,1-1.971-.884l-.855-.442h0s-1.262-.076-1.337-.093c-.919-.174-2.582-1.047-2.71-2.087a1.233,1.233,0,0,1,1.244-1.349,2.57,2.57,0,0,1,1.866,1.1A8.14,8.14,0,0,1,62,263.37l.9.442a21.472,21.472,0,0,0,1.983.837c.2.076.413.145.622.215-.326-.192-.768-.465-.8-.5-.733-.581-1.808-2.116-1.448-3.1A1.233,1.233,0,0,1,65,260.643a2.553,2.553,0,0,1,1.163,1.837,8.262,8.262,0,0,1-.267,2.512c.459.157.936.3,1.442.43a16,16,0,0,0,2.785.465h.169a10.28,10.28,0,0,1-1.163-.581c-.791-.488-2.029-1.907-1.744-2.907a1.233,1.233,0,0,1,1.645-.814,2.6,2.6,0,0,1,1.349,1.7,8.751,8.751,0,0,1,0,2.587,21.839,21.839,0,0,0,2.727-.029c.7-.052,1.4-.134,2.1-.221-.233-.093-1.1-.512-1.163-.547-.791-.494-2.029-1.913-1.744-2.907a1.227,1.227,0,0,1,1.645-.808,2.558,2.558,0,0,1,1.343,1.7,8.635,8.635,0,0,1,0,2.57l.954-.122c1.047-.14,2.093-.285,3.128-.4.36-.041.715-.064,1.07-.093-.337-.151-.942-.442-.994-.471-.791-.494-2.029-1.913-1.744-2.907a1.233,1.233,0,0,1,1.645-.814,2.593,2.593,0,0,1,1.314,1.675,8.256,8.256,0,0,1,0,2.483c.581-.041,1.163-.07,1.744-.064h.744l.721.047c.488.047.942.087,1.4.145l.669.081c-.366-.1-.942-.273-.988-.3-.861-.366-2.326-1.582-2.2-2.622a1.238,1.238,0,0,1,1.506-1.052,2.582,2.582,0,0,1,1.587,1.483,8.461,8.461,0,0,1,.39,2.529c.547.07,1.076.145,1.576.227,1.564.25,2.866.518,3.768.715s1.425.337,1.425.337h0a.361.361,0,0,1,.25.453.372.372,0,0,1-.454.25S92.333,267.1,91.444,266.882Z" transform="translate(-54.901 -221.534)" fill="#fff"/>
            <path id="Path_635" data-name="Path 635" d="M68.162,268.753A8.89,8.89,0,0,1,67,271.079a2.576,2.576,0,0,1-1.971.924,1.238,1.238,0,0,1-1.1-1.471c.227-1.018,1.965-1.744,2.907-1.814C66.9,268.706,68.168,268.736,68.162,268.753Z" transform="translate(-57.384 -225.207)" fill="#fff"/>
            <path id="Path_636" data-name="Path 636" d="M89,248.133c-.919-.843-2.25-2.029-3.913-3.378-.477-.39-.994-.8-1.523-1.209a11.432,11.432,0,0,1-2.622,2.285,3.508,3.508,0,0,1-2.954.145,1.68,1.68,0,0,1-.64-2.413c.808-1.163,3.372-1.163,4.582-.8.076,0,.965.407,1.413.581-.32-.25-.64-.494-.983-.744-.483-.366-1.012-.738-1.518-1.1l-.82-.541c-.273-.186-.581-.337-.837-.512-.419-.244-.866-.471-1.308-.7a10.69,10.69,0,0,1-2.151,2.512,3.518,3.518,0,0,1-2.907.581,1.68,1.68,0,0,1-1-2.291c.622-1.279,3.157-1.663,4.407-1.483l.616.151c-.442-.209-.878-.424-1.331-.628-1.285-.581-2.611-1.111-3.936-1.657l-.831-.343a11.078,11.078,0,0,1-2.2,2.587,3.465,3.465,0,0,1-2.907.581,1.675,1.675,0,0,1-1-2.291c.622-1.273,3.151-1.663,4.407-1.483.047,0,.355.087.7.18-.715-.308-1.425-.622-2.122-.959a30.021,30.021,0,0,1-3.489-1.936,11.785,11.785,0,0,1-2.262,2.675,3.493,3.493,0,0,1-2.907.581,1.68,1.68,0,0,1-1-2.291c.628-1.279,3.157-1.663,4.413-1.483.087,0,1.215.308,1.611.424h-.041a21.357,21.357,0,0,1-2.936-2.442,29.03,29.03,0,0,1-2.326-2.576c-.686-.831-1.268-1.634-1.744-2.326-.273-.39-.512-.75-.733-1.093v.029s-1.454-.913-1.541-.983c-.977-.808-2.39-2.942-1.861-4.262a1.686,1.686,0,0,1,2.372-.8,3.527,3.527,0,0,1,1.5,2.541,11.612,11.612,0,0,1-.442,3.39c.233.349.488.715.785,1.116.517.7,1.111,1.494,1.808,2.326.186.221.4.442.581.669-.262-.448-.581-1.064-.628-1.122-.5-1.163-.768-3.715.308-4.652a1.68,1.68,0,0,1,2.471.384,3.5,3.5,0,0,1,.163,2.954,11.643,11.643,0,0,1-1.971,2.814c.448.488.924.977,1.442,1.459a22.17,22.17,0,0,0,3.018,2.384l.2.11c-.169-.2-.994-1.343-1.047-1.43-.616-1.111-1.163-3.611-.2-4.652a1.68,1.68,0,0,1,2.494.11,3.493,3.493,0,0,1,.488,2.907,11.833,11.833,0,0,1-1.692,3.082,29.693,29.693,0,0,0,3.39,1.8c.861.39,1.744.756,2.646,1.111-.209-.262-.977-1.331-1.023-1.413-.622-1.111-1.163-3.611-.2-4.652a1.686,1.686,0,0,1,2.5.11,3.493,3.493,0,0,1,.488,2.907,11.706,11.706,0,0,1-1.686,3.064l1.221.483c1.337.517,2.68,1.029,3.989,1.576.454.192.9.39,1.337.581-.3-.4-.837-1.163-.878-1.215-.616-1.1-1.163-3.6-.2-4.652a1.675,1.675,0,0,1,2.494.11,3.49,3.49,0,0,1,.488,2.907,11.3,11.3,0,0,1-1.616,2.971c.733.337,1.454.692,2.146,1.076.291.174.581.331.878.512l.831.523c.581.372,1.07.721,1.576,1.087.256.18.494.36.738.541-.366-.36-.936-.948-.983-1.006-.779-1-1.7-3.39-.9-4.564a1.686,1.686,0,0,1,2.489-.267,3.5,3.5,0,0,1,.919,2.808,12.551,12.551,0,0,1-1.163,3.268c.581.448,1.163.884,1.744,1.3,1.709,1.331,3.082,2.5,4.029,3.332s1.477,1.331,1.477,1.331h0a.5.5,0,1,1-.7.7S89.92,248.977,89,248.133Z" transform="translate(-52.692 -204.192)" fill="#fff"/>
            <path id="Path_637" data-name="Path 637" d="M59.573,235.723a12.1,12.1,0,0,1-2.907,2.006,3.52,3.52,0,0,1-2.954-.2,1.68,1.68,0,0,1-.36-2.471c.942-1.064,3.489-.773,4.652-.267C58.1,234.839,59.59,235.705,59.573,235.723Z" transform="translate(-52.806 -210.818)" fill="#fff"/>
          </g>
        </g>
      </g>
      <g id="freepik--Card--inject-124" transform="translate(103.661 166.857)">
        <rect id="Rectangle_1477" data-name="Rectangle 1477" width="132.713" height="81.122" rx="8.13" transform="translate(0 8.564) rotate(-3.7)" fill="#78c891"/>
        <path id="Path_638" data-name="Path 638" d="M268.908,167.314,144.6,175.344a4.07,4.07,0,0,0-3.8,4.332l1.355,20.932,132.44-8.559-1.355-20.932a4.07,4.07,0,0,0-4.326-3.8Z" transform="translate(-140.533 -167.045)" fill="#646464"/>
        <path id="Path_639" data-name="Path 639" d="M195.12,261.982c-22.734,11.7-37.573,14.3-46.48,14.193l.145,2.262a4.07,4.07,0,0,0,4.332,3.8L277.423,274.2a4.07,4.07,0,0,0,3.8-4.332l-2.622-40.6C242.955,229.939,232.856,242.562,195.12,261.982Z" transform="translate(-143.821 -192.981)" fill="#646464"/>
        <rect id="Rectangle_1478" data-name="Rectangle 1478" width="14.199" height="13.728" rx="3.07" transform="translate(13.237 27.523) rotate(-3.7)" fill="#fff"/>
        <rect id="Rectangle_1479" data-name="Rectangle 1479" width="4.401" height="4.256" rx="1.5" transform="translate(18.428 31.936) rotate(-3.7)" fill="#fff"/>
        <path id="Path_640" data-name="Path 640" d="M163.28,216.645l4.151-.267a1.465,1.465,0,0,1,1.558,1.372l.116,1.744" transform="translate(-149.949 -187.583)" fill="none"/>
        <path id="Path_641" data-name="Path 641" d="M183.709,215.27l-4.1.262a1.471,1.471,0,0,0-1.372,1.558l.116,1.744" transform="translate(-156.209 -187.121)" fill="none"/>
        <path id="Path_642" data-name="Path 642" d="M164.48,232.75l4.151-.267A1.465,1.465,0,0,0,170,230.924l-.11-1.744" transform="translate(-150.451 -192.943)" fill="none"/>
        <path id="Path_643" data-name="Path 643" d="M184.715,231.7l-4.07.262a1.465,1.465,0,0,1-1.564-1.366l-.11-1.744" transform="translate(-156.516 -192.805)" fill="none"/>
        <line id="Line_3" data-name="Line 3" y1="0.314" x2="4.867" transform="translate(13.72 34.394)" fill="none"/>
        <line id="Line_4" data-name="Line 4" y1="0.314" x2="4.861" transform="translate(22.861 33.801)" fill="none"/>
        <text id="CREDIT_CARD" data-name="CREDIT CARD" transform="translate(73.084 19.37) rotate(-3.7)" fill="#fff" font-size="7" font-family="Nunito-Regular, Nunito"><tspan x="0" y="0">CREDIT CARD</tspan></text>
        <text id="_0000000000000000" data-name="0000000000000000" transform="translate(14.697 60.577) rotate(-3.7)" fill="#fff" font-size="8" font-family="Nunito-Regular, Nunito" letter-spacing="0.1em"><tspan x="0" y="0">0000000000000000</tspan></text>
        <circle id="Ellipse_19" data-name="Ellipse 19" cx="6.64" cy="6.64" r="6.64" transform="translate(100.74 73.167) rotate(-68.97)" fill="#fff"/>
        <circle id="Ellipse_20" data-name="Ellipse 20" cx="6.64" cy="6.64" r="6.64" transform="matrix(0.069, -0.998, 0.998, 0.069, 111.236, 74.924)" fill="#fff"/>
      </g>
    </g>
  </g>
</svg>
