<svg xmlns="http://www.w3.org/2000/svg" width="163.147" height="159.337" viewBox="0 0 163.147 159.337">
  <g id="driver" transform="translate(-38.613 -41.3)">
    <g id="Group_8269" data-name="Group 8269">
      <g id="freepik--background-complete--inject-93" transform="translate(42.055 41.3)">
        <path id="Path_503" data-name="Path 503" d="M369.367,355.192c-9.856-3.9-14.379-14.417-16.381-24.352-.335-1.658-.927-3.351-.486-4.979s2.032-3.049,3.667-2.706c1.361.286,2.231,1.579,3.192,2.593a9.886,9.886,0,0,0,4.734,2.77,3.76,3.76,0,0,0,3.449-.494c1.236-1.131.939-3.121.539-4.757l-2.228-9.136a15.665,15.665,0,0,1-.66-4.979,5.189,5.189,0,0,1,2.378-4.187,3.157,3.157,0,0,1,4.3,1.161,15.208,15.208,0,0,1,.531,2.024c.207.667.7,1.346,1.391,1.383s1.244-.584,1.621-1.18a22.344,22.344,0,0,0,2.506-6.822,31.036,31.036,0,0,1,2.2-6.95,9.11,9.11,0,0,1,5.2-4.787,5.446,5.446,0,0,1,6.291,2.326c1.138,2.16.351,4.828-.671,7.041a37.555,37.555,0,0,1-5.887,9.046,3.083,3.083,0,0,0-.946,1.67c-.1,1.172,1.195,2.013,2.356,2.114a19.618,19.618,0,0,0,3.924-.475,3.79,3.79,0,0,1,3.6,1.172c1.067,1.508.083,3.6-1.021,5.073a32.1,32.1,0,0,1-7.994,7.538,11.069,11.069,0,0,0-3.045,2.488,3.1,3.1,0,0,0-.147,3.7,3.175,3.175,0,0,0,3.66.494,22.408,22.408,0,0,0,3.268-2.224c2.047-1.383,4.987-1.918,6.89-.317a5.324,5.324,0,0,1,1.636,4.451,12.523,12.523,0,0,1-1.508,4.632,32.194,32.194,0,0,1-11.209,12.638c-4.787,3.015-9.506,4.681-15.141,4.018" transform="translate(-237.536 -195.988)" fill="#f5f5f5"/>
        <path id="Path_504" data-name="Path 504" d="M400.37,349.853a150.658,150.658,0,0,1,2.077-17.168q.377-2.261.776-4.474c.256-1.466.513-2.921.852-4.331a74.949,74.949,0,0,1,2.4-7.979c.886-2.5,1.82-4.84,2.71-7.022s1.764-4.2,2.638-6a59.348,59.348,0,0,1,4.749-8.2c.633-.92,1.15-1.621,1.508-2.088q.26-.332.407-.531a.988.988,0,0,1,.151-.173,1.4,1.4,0,0,1-.124.2l-.377.547c-.339.482-.841,1.191-1.459,2.118a63.738,63.738,0,0,0-4.651,8.232c-.856,1.805-1.715,3.822-2.6,6s-1.8,4.523-2.68,7.026a76.094,76.094,0,0,0-2.378,7.96c-.335,1.4-.588,2.846-.844,4.316s-.513,2.962-.773,4.47a153.3,153.3,0,0,0-2.1,17.131" transform="translate(-267.462 -197.434)" fill="#e0e0e0"/>
        <path id="Path_505" data-name="Path 505" d="M399.4,347.87a3.263,3.263,0,0,1-.328-.663c-.192-.43-.452-1.063-.754-1.851-.618-1.576-1.4-3.769-2.261-6.212s-1.658-4.621-2.3-6.181c-.32-.78-.584-1.41-.773-1.843a3.11,3.11,0,0,1-.256-.69,3.39,3.39,0,0,1,.377.637c.222.418.516,1.036.863,1.809.694,1.545,1.538,3.728,2.39,6.162s1.583,4.579,2.16,6.238l.667,1.885a3.567,3.567,0,0,1,.211.709Z" transform="translate(-262.701 -221.454)" fill="#e0e0e0"/>
        <path id="Path_506" data-name="Path 506" d="M430.528,353a4.493,4.493,0,0,1-.818.3c-.528.173-1.293.426-2.231.754-1.885.663-4.436,1.673-7.214,2.914s-5.243,2.473-7,3.415c-.882.467-1.587.863-2.073,1.131a4.9,4.9,0,0,1-.773.4,4.545,4.545,0,0,1,.709-.5c.471-.305,1.161-.731,2.032-1.221,1.734-1,4.191-2.261,6.977-3.509a75.716,75.716,0,0,1,7.274-2.838c.946-.313,1.726-.531,2.261-.671A4.348,4.348,0,0,1,430.528,353Z" transform="translate(-273.724 -235.517)" fill="#e0e0e0"/>
        <path id="Path_507" data-name="Path 507" d="M372.762,404.229a1.287,1.287,0,0,1-.2-.222l-.539-.675c-.467-.592-1.131-1.462-1.915-2.544-1.587-2.171-3.682-5.239-5.951-8.65s-4.338-6.5-5.876-8.7l-1.832-2.6c-.2-.283-.377-.516-.494-.709s-.166-.253-.155-.26.075.068.2.222l.539.675c.467.588,1.131,1.459,1.915,2.544,1.587,2.171,3.682,5.235,5.955,8.65s4.334,6.5,5.872,8.7l1.832,2.6.494.712C372.717,404.131,372.773,404.221,372.762,404.229Z" transform="translate(-239.688 -252.258)" fill="#e0e0e0"/>
        <path id="Path_508" data-name="Path 508" d="M426.623,403a1.172,1.172,0,0,1-.253.181l-.754.464-2.763,1.681c-2.337,1.421-5.537,3.419-9.068,5.631s-6.758,4.184-9.121,5.556c-1.18.686-2.145,1.229-2.816,1.594l-.776.415a.156.156,0,1,1-.03-.057L401.8,418l2.763-1.681c2.337-1.421,5.537-3.419,9.072-5.631s6.754-4.18,9.117-5.552c1.18-.686,2.141-1.233,2.816-1.6l.776-.411a1.106,1.106,0,0,1,.283-.128Z" transform="translate(-267.723 -266.671)" fill="#e0e0e0"/>
        <rect id="Rectangle_1475" data-name="Rectangle 1475" width="26.41" height="39.184" transform="matrix(0.191, -0.982, 0.982, 0.191, 0, 70.342)" fill="#ebebeb"/>
        <path id="Path_509" data-name="Path 509" d="M99.734,167.525a2.452,2.452,0,0,1-.426.275l-1.251.731-4.647,2.638-15.427,8.586-.124.068-.094-.109-.23-.268L65.978,165.78l-3.471-4.165-.931-1.131a2.476,2.476,0,0,1-.305-.415,3.136,3.136,0,0,1,.358.377l.984,1.1,3.558,4.093,11.635,13.591.23.268-.222-.041,15.476-8.492,4.7-2.533,1.285-.671A2.727,2.727,0,0,1,99.734,167.525Z" transform="translate(-56.172 -115.304)" fill="#e0e0e0"/>
        <path id="Path_510" data-name="Path 510" d="M47.909,207.178c-.064-.079,3.52-3.068,8-6.683s8.164-6.483,8.224-6.407-3.52,3.068-8,6.683S47.969,207.246,47.909,207.178Z" transform="translate(-47.846 -136.499)" fill="#e0e0e0"/>
        <path id="Path_511" data-name="Path 511" d="M125.046,199.819c.087-.045,2.261,4.04,4.851,9.117s4.625,9.238,4.523,9.283-2.261-4.037-4.855-9.121S124.959,199.865,125.046,199.819Z" transform="translate(-95.908 -140.071)" fill="#e0e0e0"/>
        <path id="Path_512" data-name="Path 512" d="M160.786,117.417l-24.315,2.544-2-16.893,24.315-2.548Z" transform="translate(-101.782 -78.199)" fill="#f5f5f5"/>
        <path id="Path_513" data-name="Path 513" d="M159.079,101a1.432,1.432,0,0,1-.2.249l-.6.682-2.261,2.484-7.519,8.149-.06.068-.079-.053-.188-.121c-3.7-2.442-7.056-4.647-9.506-6.26l-2.868-1.922-.754-.531a1.666,1.666,0,0,1-.26-.2,1.735,1.735,0,0,1,.283.158l.8.5c.709.449,1.7,1.082,2.906,1.858l9.54,6.2.188.121h-.139c2.955-3.159,5.62-6.031,7.568-8.1l2.307-2.431c.264-.271.475-.49.637-.652A1.906,1.906,0,0,1,159.079,101Z" transform="translate(-101.975 -78.498)" fill="#e0e0e0"/>
        <path id="Path_514" data-name="Path 514" d="M140.048,134.319c-.053-.034,1.508-2.544,3.471-5.6s3.6-5.507,3.656-5.469-1.508,2.54-3.471,5.6S140.1,134.353,140.048,134.319Z" transform="translate(-105.257 -92.361)" fill="#e0e0e0"/>
        <path id="Path_515" data-name="Path 515" d="M180.339,120.439c.045-.041,2.122,2.065,4.644,4.711s4.523,4.828,4.485,4.87-2.122-2.065-4.644-4.711S180.294,120.484,180.339,120.439Z" transform="translate(-130.362 -90.61)" fill="#e0e0e0"/>
        <path id="Path_516" data-name="Path 516" d="M92.687,60.04,79.25,50.734,85.6,41.3l13.437,9.3Z" transform="translate(-67.375 -41.3)" fill="#f5f5f5"/>
        <path id="Path_517" data-name="Path 517" d="M109.437,50.982a.976.976,0,0,1-.211.041l-.6.083-2.224.275-7.365.852h-.06v-.057a.538.538,0,0,0-.041-.147l-2.111-7.308c-.256-.927-.467-1.681-.614-2.224l-.162-.6A1.029,1.029,0,0,1,96,41.68a1.232,1.232,0,0,1,.075.2c.045.151.109.351.185.6.162.535.377,1.285.663,2.2.55,1.885,1.3,4.459,2.133,7.3l.041.143-.075-.053,7.365-.81,2.231-.226.607-.053A1.477,1.477,0,0,1,109.437,50.982Z" transform="translate(-77.812 -41.537)" fill="#e0e0e0"/>
        <path id="Path_518" data-name="Path 518" d="M79.16,62.563c0-.038,1.885-.633,4.2-1.323s4.229-1.221,4.24-1.184-1.885.637-4.2,1.327S79.171,62.6,79.16,62.563Z" transform="translate(-67.319 -52.986)" fill="#e0e0e0"/>
        <path id="Path_519" data-name="Path 519" d="M113.59,68c.041,0,.173,1.971.3,4.41s.192,4.421.151,4.425-.177-1.971-.3-4.41S113.548,68,113.59,68Z" transform="translate(-88.765 -57.936)" fill="#e0e0e0"/>
        <path id="Path_520" data-name="Path 520" d="M351.924,99.042a14.982,14.982,0,1,0-27.891,7.568h0l.041.057c.573.969,1.293,1.662,2.02,2.68l8.7,11.522a2.71,2.71,0,0,0,4.319,0l8.556-11.334a32.455,32.455,0,0,0,2.175-2.883l.026-.023h0A14.91,14.91,0,0,0,351.924,99.042Zm-14.982,6.524a6.6,6.6,0,1,1,6.6-6.6,6.6,6.6,0,0,1-6.6,6.6Z" transform="translate(-218.605 -67.921)" fill="#f5f5f5"/>
        <path id="Path_521" data-name="Path 521" d="M405.142,178.643a8.081,8.081,0,1,0-15.024,4.082h0l.023.03c.309.52.7.9,1.089,1.444l4.693,6.215a1.455,1.455,0,0,0,2.326,0l4.613-6.113a17.288,17.288,0,0,0,1.176-1.553v-.023h0A8.02,8.02,0,0,0,405.142,178.643Zm-8.081,3.517a3.554,3.554,0,1,1,2.516-1.04A3.554,3.554,0,0,1,397.061,182.159Z" transform="translate(-260.365 -121.808)" fill="#ebebeb"/>
      </g>
      <g id="freepik--Character--inject-93" transform="translate(63.222 50.74)">
        <path id="Path_522" data-name="Path 522" d="M189.251,90.7l2.48,35.128a10.953,10.953,0,0,0,10.93,10.177h0a10.953,10.953,0,0,0,10.93-11.684c-.219-3.343-.418-6.08-.418-6.08s8.507-1.323,8.612-9.826c.06-4.9-.788-16.056-1.508-24.593a11.153,11.153,0,0,0-11.115-10.2h-5.152A15.736,15.736,0,0,0,189.251,90.7Z" transform="translate(-157.045 -70.878)" fill="#e2b8a8"/>
        <path id="Path_523" data-name="Path 523" d="M234.515,186.521a19.767,19.767,0,0,1-11.085-3.151s2.62,6.121,11.1,5.356Z" transform="translate(-178.379 -139.262)" fill="#c99987"/>
        <path id="Path_524" data-name="Path 524" d="M260.613,126.181a1.214,1.214,0,0,1-1.172,1.225,1.161,1.161,0,0,1-1.251-1.093,1.217,1.217,0,0,1,1.168-1.229,1.165,1.165,0,0,1,1.255,1.1Z" transform="translate(-200.038 -102.943)" fill="#263238"/>
        <path id="Path_525" data-name="Path 525" d="M259.808,121.254c-.151.158-1.07-.52-2.375-.516s-2.261.656-2.408.5c-.068-.072.087-.377.5-.663a3.336,3.336,0,0,1,1.926-.592,3.174,3.174,0,0,1,1.885.611C259.747,120.9,259.883,121.186,259.808,121.254Z" transform="translate(-198.056 -99.765)" fill="#263238"/>
        <path id="Path_526" data-name="Path 526" d="M226.783,126.181a1.214,1.214,0,0,1-1.172,1.225,1.161,1.161,0,0,1-1.251-1.093,1.217,1.217,0,0,1,1.172-1.229,1.165,1.165,0,0,1,1.251,1.1Z" transform="translate(-178.959 -102.943)" fill="#263238"/>
        <path id="Path_527" data-name="Path 527" d="M225.731,121.888c-.151.158-1.074-.524-2.378-.52s-2.261.66-2.408.5c-.068-.072.083-.354.5-.66a3.392,3.392,0,0,1,1.926-.6,3.249,3.249,0,0,1,1.885.611C225.667,121.533,225.8,121.82,225.731,121.888Z" transform="translate(-176.821 -100.157)" fill="#263238"/>
        <path id="Path_528" data-name="Path 528" d="M245.235,131.73a8.517,8.517,0,0,1,2.122-.377c.332-.038.648-.1.7-.332a1.685,1.685,0,0,0-.222-.988q-.467-1.21-.988-2.54a43.929,43.929,0,0,1-2.216-6.645,43.855,43.855,0,0,1,2.748,6.449q.494,1.342.946,2.559a1.917,1.917,0,0,1,.17,1.308.822.822,0,0,1-.547.486,2.07,2.07,0,0,1-.565.079A8.53,8.53,0,0,1,245.235,131.73Z" transform="translate(-191.584 -100.306)" fill="#263238"/>
        <path id="Path_529" data-name="Path 529" d="M235.7,152.12c.211,0,.215,1.406,1.428,2.412s2.721.852,2.733,1.048c.023.09-.335.275-.972.294a3.536,3.536,0,0,1-2.284-.8,3.072,3.072,0,0,1-1.108-2.024C235.44,152.451,235.6,152.112,235.7,152.12Z" transform="translate(-185.889 -119.791)" fill="#263238"/>
        <path id="Path_530" data-name="Path 530" d="M224.7,108.811c-.128.377-1.432.188-2.966.377s-2.774.6-2.978.283c-.09-.151.124-.486.626-.829a5.2,5.2,0,0,1,4.523-.5C224.49,108.366,224.757,108.653,224.7,108.811Z" transform="translate(-175.455 -92.199)" fill="#263238"/>
        <path id="Path_531" data-name="Path 531" d="M259.115,111.091c-.23.3-1.131,0-2.212-.026s-2,.2-2.209-.109c-.094-.151.049-.449.452-.731a3.2,3.2,0,0,1,3.562.113C259.089,110.639,259.217,110.967,259.115,111.091Z" transform="translate(-197.842 -93.382)" fill="#263238"/>
        <path id="Path_532" data-name="Path 532" d="M187.646,135.427c-.147-.064-5.842-1.726-5.654,4.086s5.982,4.429,5.989,4.259S187.646,135.427,187.646,135.427Z" transform="translate(-152.557 -109.223)" fill="#e2b8a8"/>
        <path id="Path_533" data-name="Path 533" d="M188.562,144.77c-.026,0-.1.075-.268.158a1.021,1.021,0,0,1-.754.041,2.515,2.515,0,0,1-1.232-2.212,3.392,3.392,0,0,1,.237-1.459,1.176,1.176,0,0,1,.754-.8.516.516,0,0,1,.607.26c.083.158.049.275.079.286s.124-.1.068-.343a.641.641,0,0,0-.241-.354.754.754,0,0,0-.565-.132,1.428,1.428,0,0,0-1.029.935,3.482,3.482,0,0,0-.3,1.632,2.618,2.618,0,0,0,1.557,2.465,1.085,1.085,0,0,0,.923-.185C188.554,144.913,188.584,144.781,188.562,144.77Z" transform="translate(-155.003 -112.365)" fill="#aa6550"/>
        <path id="Path_534" data-name="Path 534" d="M186.657,94.981a3.052,3.052,0,0,1,2.8,1.432c.377.829.46,1.771.837,2.6a2.049,2.049,0,0,0,2.118,1.368,1.783,1.783,0,0,0,1.21-1.323,4.9,4.9,0,0,0,.019-1.885c-.343-2.714-.912-5.4-1.021-8.141a14.014,14.014,0,0,1,1.715-7.915,7.6,7.6,0,0,1,6.784-3.822c1.805.143,3.464,1.086,5.258,1.338a7.1,7.1,0,0,0,5.9-1.971c.2-.192,1.1-.792,1.1-.792a3.352,3.352,0,0,0-.611-1.8c-3.562-3.29-9.977-4.21-14.681-3.015a17.055,17.055,0,0,0-11.138,8.91c-2.024,4.387-1.421,10.554-.305,15" transform="translate(-154.817 -68.973)" fill="#263238"/>
        <path id="Path_535" data-name="Path 535" d="M216.668,78s-22.306-7.161-31.955,12.121A36.138,36.138,0,0,1,183.27,82.7c0-1.73,1.033-12.027,11.631-15.269C194.9,67.433,210.864,61.342,216.668,78Z" transform="translate(-153.356 -66.346)" fill="#78c891"/>
        <path id="Path_536" data-name="Path 536" d="M220.277,91.991a4.855,4.855,0,0,0,7.723.7,2.861,2.861,0,0,0,5.409-.283,6.46,6.46,0,0,0,2.171,1.583,2.21,2.21,0,0,0,2.476-.516,2.183,2.183,0,0,0-.155-2.559,5.277,5.277,0,0,0-2.261-1.508,16.309,16.309,0,0,0-8.42-1.274,11.308,11.308,0,0,0-7.38,4.018" transform="translate(-176.143 -79.857)" fill="#263238"/>
        <g id="Group_84" data-name="Group 84" transform="translate(29.899 0)" opacity="0.4">
          <path id="Path_537" data-name="Path 537" d="M216.643,78a10.369,10.369,0,0,0-7.093-3.223c-6.581-.29-18.895,3.411-24.876,15.344A36.138,36.138,0,0,1,183.23,82.7c0-1.73,1.033-12.027,11.631-15.269C194.877,67.433,210.839,61.342,216.643,78Z" transform="translate(-183.23 -66.346)"/>
        </g>
        <path id="Path_538" data-name="Path 538" d="M189.57,88.67a41.787,41.787,0,0,1,13-12.438c5.13-3.192,13.607-6.37,19.449-7.915a12.7,12.7,0,0,1,5.375-.565,4.843,4.843,0,0,1,3.98,3.26c.558,2.2-3.355,5.6-5.19,6.939a60.629,60.629,0,0,1-5.586,3.3s.053-4.086-6.49-4.926C205.208,75.158,189.57,88.67,189.57,88.67Z" transform="translate(-157.282 -67.155)" fill="#78c891"/>
        <path id="Path_539" data-name="Path 539" d="M237.562,73.841A21,21,0,0,1,244,71.648,8.4,8.4,0,0,0,242.25,70.6a16.558,16.558,0,0,0-5.02,1.689Z" transform="translate(-186.978 -68.997)" fill="#e0e0e0"/>
        <path id="Path_540" data-name="Path 540" d="M172.607,201.547l-7.075-1.56-2.88-.72-2.4-3.716s-1.131,6.645-5.424,10.222a4.979,4.979,0,0,1-4.218,1.01c-.969-.2-2.107-.452-2.951-.678-.181-.049-.377-.113-.588-.188a13.8,13.8,0,0,1-7.286-6.283c-.95-1.689-1.753-3.422-1.477-4.082l-3.358,6.954-19.788,9.114L103.93,239.064,125.7,245.5l.678,22.615-4.1,28.51,61.6.041-2.186-63.43" transform="translate(-103.92 -146.852)" fill="#78c891"/>
        <path id="Path_541" data-name="Path 541" d="M233.933,247.9a2.371,2.371,0,0,1-.377,0l-1.1-.026-3.916-.139h-.075v-.064c-.064-1.7-.143-3.713-.23-5.865-.1-3.1-.192-5.906-.264-7.968-.023-1-.041-1.82-.057-2.416v-.656a.9.9,0,0,1,0-.23,1,1,0,0,1,.026.226c0,.173.026.377.041.656.03.6.072,1.413.121,2.412.083,2.062.2,4.866.32,7.964.075,2.156.143,4.169.2,5.869l-.083-.079,3.916.207,1.093.072A1.738,1.738,0,0,1,233.933,247.9Z" transform="translate(-181.171 -168.654)" fill="#263238"/>
        <path id="Path_542" data-name="Path 542" d="M233.112,251.867a.543.543,0,0,1,.294-.1,1.27,1.27,0,0,1,1.206.675,1.131,1.131,0,0,1,.109.686,1.387,1.387,0,0,1-1.006,1.131,1.459,1.459,0,0,1-1.432-.509,1.391,1.391,0,0,1-.271-1.217,1.481,1.481,0,0,1,.407-.754c.143-.139.249-.185.253-.173s-.075.079-.2.226a1.591,1.591,0,0,0-.328.712,1.278,1.278,0,0,0,.271,1.074,1.308,1.308,0,0,0,1.251.437,1.217,1.217,0,0,0,.871-.972,1.025,1.025,0,0,0-.4-1,1.191,1.191,0,0,0-.727-.26C233.213,251.845,233.112,251.882,233.112,251.867Z" transform="translate(-183.7 -181.779)" fill="#263238"/>
        <path id="Path_543" data-name="Path 543" d="M231.712,230.765a.6.6,0,0,1,.309-.143,1.338,1.338,0,0,1,.92.136,1.315,1.315,0,0,1,.494.437,1.236,1.236,0,0,1,.207.735,1.477,1.477,0,0,1-1,1.338,1.508,1.508,0,0,1-1.575-.55,1.323,1.323,0,0,1-.275-.709,1.56,1.56,0,0,1,.106-.652,1.508,1.508,0,0,1,.592-.716.614.614,0,0,1,.32-.121,2.035,2.035,0,0,0-.275.185,1.508,1.508,0,0,0-.505.7,1.24,1.24,0,0,0,.181,1.2,1.334,1.334,0,0,0,1.376.471,1.312,1.312,0,0,0,.871-1.157,1.131,1.131,0,0,0-.584-1.044,1.364,1.364,0,0,0-.841-.181C231.829,230.724,231.72,230.78,231.712,230.765Z" transform="translate(-182.968 -168.641)" fill="#263238"/>
        <path id="Path_544" data-name="Path 544" d="M227.91,256.892a.523.523,0,0,1,.094-.041l.283-.109c.253-.087.611-.245,1.067-.456a14.143,14.143,0,0,0,3.468-2.465,27.673,27.673,0,0,0,3.969-4.922,69.458,69.458,0,0,0,3.867-6.739,117.348,117.348,0,0,0,5.492-13.011c.614-1.7,1.093-3.087,1.428-4.04l.377-1.1c.041-.113.079-.207.106-.283a.524.524,0,0,1,.041-.094.377.377,0,0,1-.023.1c-.023.075-.053.17-.087.29-.087.268-.2.637-.351,1.131-.313.961-.773,2.352-1.376,4.059a108.523,108.523,0,0,1-5.435,13.026,67.3,67.3,0,0,1-3.89,6.75,27.176,27.176,0,0,1-4.025,4.934,13.707,13.707,0,0,1-3.528,2.431,10.166,10.166,0,0,1-1.089.426l-.29.09A.331.331,0,0,1,227.91,256.892Z" transform="translate(-181.171 -164.348)" fill="#263238"/>
        <path id="Path_545" data-name="Path 545" d="M258.153,291.486c.162,0,3.912-.256,3.912-.256A13.135,13.135,0,0,1,258.9,295H255.62Z" transform="translate(-198.437 -206.469)" fill="#fafafa"/>
        <path id="Path_546" data-name="Path 546" d="M226.17,303.656a1.216,1.216,0,0,1,.211-.162l.633-.437c.547-.377,1.334-.942,2.28-1.67,1.885-1.444,4.395-3.6,7.078-6.065,1.342-1.232,2.638-2.393,3.747-3.509a29.309,29.309,0,0,0,2.763-3.136,17.034,17.034,0,0,0,1.508-2.375c.166-.29.268-.528.347-.686a1.334,1.334,0,0,1,.132-.237,1.582,1.582,0,0,1-.094.253c-.068.162-.162.407-.317.7a15.575,15.575,0,0,1-1.466,2.424,27.646,27.646,0,0,1-2.748,3.181c-1.112,1.131-2.4,2.3-3.743,3.524a92.709,92.709,0,0,1-7.124,6.031c-.961.712-1.764,1.255-2.322,1.621-.283.181-.505.313-.656.407A1.178,1.178,0,0,1,226.17,303.656Z" transform="translate(-180.087 -202.824)" fill="#263238"/>
        <path id="Path_547" data-name="Path 547" d="M198.13,397.471a.168.168,0,0,1,.045-.09,2.554,2.554,0,0,0,.155-.249c.139-.215.351-.531.633-.931.565-.792,1.44-1.907,2.593-3.219,2.322-2.6,5.575-6.159,9.155-10.094l9.231-10.06,2.808-3.015L223.5,369l.2-.207.075-.068a.77.77,0,0,1-.06.079l-.188.222-.754.844-2.763,3.072-9.159,10.071-9.2,10.056c-1.165,1.3-2.054,2.393-2.638,3.17-.29.377-.513.7-.66.908l-.17.237a.69.69,0,0,1-.064.09Z" transform="translate(-162.615 -254.752)" fill="#263238"/>
        <path id="Path_548" data-name="Path 548" d="M284.84,211c.324.486,7.606,1.3,9.389,3.076s19.6,15.378,19.6,15.378l-12.7,17.089-8.194-1.805Z" transform="translate(-216.643 -156.478)" fill="#78c891"/>
        <path id="Path_549" data-name="Path 549" d="M332.486,255.56,318.25,273.493l3.7.814L334.631,257.2Z" transform="translate(-237.461 -184.243)" opacity="0.4"/>
        <path id="Path_550" data-name="Path 550" d="M294.407,234.024a4.106,4.106,0,0,1-.147-.6c-.041-.192-.09-.43-.124-.709s-.09-.6-.109-.95-.057-.754-.057-1.157,0-.859.034-1.327a18.39,18.39,0,0,1,.471-3.015,18.118,18.118,0,0,1,1.014-2.876c.2-.422.377-.829.592-1.191s.4-.7.592-1,.377-.554.543-.784a6.961,6.961,0,0,1,.441-.569,3.525,3.525,0,0,1,.411-.456,3.728,3.728,0,0,1-.351.5c-.117.158-.26.351-.411.588s-.343.49-.516.8-.377.629-.565,1-.377.754-.569,1.184a19.6,19.6,0,0,0-.972,2.853,19.826,19.826,0,0,0-.479,2.974c-.026.464-.06.9-.049,1.315s0,.8.03,1.131.053.667.079.946.06.516.09.709A3.278,3.278,0,0,1,294.407,234.024Z" transform="translate(-222.332 -161.712)" fill="#263238"/>
        <path id="Path_551" data-name="Path 551" d="M305.346,283.859a36.815,36.815,0,0,1-1.572-3.479,37.352,37.352,0,0,1-1.395-3.551,37.565,37.565,0,0,1,1.575,3.475A36.06,36.06,0,0,1,305.346,283.859Z" transform="translate(-227.572 -197.496)" fill="#263238"/>
        <path id="Path_552" data-name="Path 552" d="M148.409,249.642c-.03,0-.335-.547-.912-1.395a20.027,20.027,0,0,0-2.571-3.064,20.4,20.4,0,0,0-3.136-2.476c-.867-.55-1.436-.837-1.421-.867a1.884,1.884,0,0,1,.415.17,12.156,12.156,0,0,1,1.078.58,17.409,17.409,0,0,1,3.2,2.454,17.673,17.673,0,0,1,2.548,3.128c.275.437.482.8.611,1.059A1.836,1.836,0,0,1,148.409,249.642Z" transform="translate(-126.625 -175.694)" fill="#263238"/>
        <path id="Path_553" data-name="Path 553" d="M103.93,307.437l.878-2.137,24.085,6.558-.954,2.68Z" transform="translate(-103.92 -215.236)" opacity="0.4"/>
        <path id="Path_554" data-name="Path 554" d="M270.283,288.56h9.17v3.769l-11.733-.075A25.379,25.379,0,0,0,270.283,288.56Z" transform="translate(-205.976 -204.805)" fill="#fafafa"/>
        <g id="Group_85" data-name="Group 85" transform="translate(31.599 56.274)" opacity="0.2">
          <path id="Path_555" data-name="Path 555" d="M187.74,215.857c.332,2.94.694,5.974,2.148,8.552s4.3,4.61,7.229,4.176a8.737,8.737,0,0,0,4.938-3.057c1.33-1.462,2.446-3.117,3.9-4.455a17.187,17.187,0,0,0,2.925,2.514,5.733,5.733,0,0,0,3.667.969,2.493,2.493,0,0,0,2.386-1.885,6.036,6.036,0,0,1-3.475.1,9.5,9.5,0,0,1-4.112-1.885c-.8-.629-1.089-1.575-2.1-1.508a3.584,3.584,0,0,0-2.292,1.508,26.382,26.382,0,0,1-3.272,3.151,5.466,5.466,0,0,1-3.664,1.466c-2.371-.053-4.312-1.915-5.62-3.893a19.517,19.517,0,0,1-2.638-5.959" transform="translate(-187.74 -215.65)"/>
        </g>
        <path id="Path_556" data-name="Path 556" d="M245.348,206.47a.977.977,0,0,1,.041.211c0,.139.045.343.072.607.057.528.113,1.293.136,2.261a32.057,32.057,0,0,1-.7,7.376v.121h-.057a7.983,7.983,0,0,1-4.059-.109,9.5,9.5,0,0,1-3.015-1.41,7.764,7.764,0,0,1-1.647-1.508,5.277,5.277,0,0,1-.354-.49,1.132,1.132,0,0,1-.109-.185,9.634,9.634,0,0,0,2.186,2.081,9.743,9.743,0,0,0,2.978,1.349,7.968,7.968,0,0,0,3.965.094l-.072.072v-.06a34.4,34.4,0,0,0,.754-7.335c0-.946-.041-1.711-.072-2.243,0-.245-.026-.445-.038-.607A.783.783,0,0,1,245.348,206.47Z" transform="translate(-185.994 -153.656)" fill="#263238"/>
        <path id="Path_557" data-name="Path 557" d="M203.484,217.751a.957.957,0,0,1-.121.226,6.191,6.191,0,0,1-.415.6,16.231,16.231,0,0,1-1.854,1.956c-.418.377-.889.8-1.4,1.225-.256.215-.513.441-.8.667a7.433,7.433,0,0,1-.931.6,5.725,5.725,0,0,1-2.261.69,4.278,4.278,0,0,1-2.488-.55,7.885,7.885,0,0,1-1.949-1.64,19.279,19.279,0,0,1-1.47-1.854,19,19,0,0,1-1.918-3.509,18.056,18.056,0,0,1-.844-2.555c-.079-.309-.128-.55-.158-.716a1.282,1.282,0,0,1-.038-.253,1.109,1.109,0,0,1,.075.245c.045.162.106.4.192.7a21.375,21.375,0,0,0,.9,2.522,19.519,19.519,0,0,0,1.941,3.456,19.045,19.045,0,0,0,1.462,1.828A7.742,7.742,0,0,0,193.3,223a4.116,4.116,0,0,0,2.378.528,5.677,5.677,0,0,0,2.2-.656,7.005,7.005,0,0,0,.916-.58c.275-.211.539-.441.8-.652.513-.426.988-.825,1.41-1.2a18.093,18.093,0,0,0,1.885-1.885c.2-.241.347-.441.445-.577A1.575,1.575,0,0,1,203.484,217.751Z" transform="translate(-155.581 -157.5)" fill="#263238"/>
        <path id="Path_558" data-name="Path 558" d="M209.46,313.122l2.906-4.236s2-6.943,1.726-7.915-1.153-4.591-.946-4.636,2.382-.852,3.562,2.05a19.051,19.051,0,0,1,1.055,5.729,1.315,1.315,0,0,0,1.579,1.229c2.009-.415,5.352-1.044,6.147-.852a3.909,3.909,0,0,1,2.284,2.239c.1.494-.694,1.606-.694,1.606a3.026,3.026,0,0,1,1.281,1.259c.041.1.075.2.106.3a1.824,1.824,0,0,1-.4,1.764l-.309.339s1.225.335,1.376,1.036a4.187,4.187,0,0,1-.041,1.542l-1.15,1.187a1.941,1.941,0,0,1,.6,1.131c.06.648-1.662,2.262-1.662,2.262l-7.391,2.638-2.932.754Z" transform="translate(-169.675 -209.564)" fill="#e2b8a8"/>
        <path id="Path_559" data-name="Path 559" d="M247.784,328.41a26.205,26.205,0,0,1-2.563.554,25.458,25.458,0,0,1-2.571.49,3.2,3.2,0,0,1,.727-.253c.456-.128,1.093-.286,1.805-.43s1.357-.249,1.832-.309A2.882,2.882,0,0,1,247.784,328.41Z" transform="translate(-190.355 -229.631)" fill="#aa6550"/>
        <path id="Path_560" data-name="Path 560" d="M251.5,338.12a10.819,10.819,0,0,1-1.956.7,10.933,10.933,0,0,1-2.013.513,10.821,10.821,0,0,1,1.956-.7A10.932,10.932,0,0,1,251.5,338.12Z" transform="translate(-193.396 -235.685)" fill="#aa6550"/>
        <path id="Path_561" data-name="Path 561" d="M252.233,347.69A27.541,27.541,0,0,1,248,349.541a27.549,27.549,0,0,1,4.233-1.851Z" transform="translate(-193.689 -241.648)" fill="#aa6550"/>
        <path id="Path_562" data-name="Path 562" d="M126.661,350.55l27.183-18.235-6.86-12.438-24.808,12.758,2.816-13.4-16.837-4.983L103.94,337.2h0c-.648,10.207,7.538,18.446,17.406,15.766h0a17.978,17.978,0,0,0,5.314-2.42Z" transform="translate(-103.904 -220.812)" fill="#e2b8a8"/>
        <path id="Path_563" data-name="Path 563" d="M142.537,369.845a1.15,1.15,0,0,1-.094-.343,6.3,6.3,0,0,1-.094-.961,6.784,6.784,0,0,1,.7-3.094,6.717,6.717,0,0,1,2.054-2.42,5.542,5.542,0,0,1,.822-.505,1.2,1.2,0,0,1,.332-.132c0,.034-.441.249-1.07.754a7.022,7.022,0,0,0-2.7,5.409C142.47,369.344,142.594,369.842,142.537,369.845Z" transform="translate(-127.858 -250.808)" fill="#aa6550"/>
        <path id="Path_564" data-name="Path 564" d="M328.06,279.461c.17-.234,19.358,11.458,19.358,11.458l6.151,28.023,8.854,3.249s2.763-31.186.66-36.04-23.425-22.321-23.425-22.321Z" transform="translate(-243.573 -189.396)" fill="#e0b19f"/>
        <path id="Path_565" data-name="Path 565" d="M384.29,330a5.062,5.062,0,0,1-1.662,1.568,5.13,5.13,0,0,1-2.118.867,21.416,21.416,0,0,0,2.013-1.033,20.16,20.16,0,0,0,1.768-1.4Z" transform="translate(-276.254 -230.626)" fill="#aa6550"/>
        <path id="Path_566" data-name="Path 566" d="M266.83,303.46l1.5,26.9L299,328.283l-.927-20.022-4.466-6.012Z" transform="translate(-205.421 -213.335)" fill="#263238"/>
        <path id="Path_567" data-name="Path 567" d="M248.34,372.921c.09.516,2.695,24.876,2.695,24.876l45.64-3.17,7.723-1.036-3.562-22.683-5.454-1.308Z" transform="translate(-193.901 -255.3)" fill="#78c891"/>
        <path id="Path_568" data-name="Path 568" d="M295.382,369.59l-47.042,3.324c.09.516,2.695,24.876,2.695,24.876l47.517-3.306Z" transform="translate(-193.901 -255.294)" opacity="0.4"/>
        <path id="Path_569" data-name="Path 569" d="M294.4,328.592l-26.067,1.764-1.5-26.9,26.776-1.21Z" transform="translate(-205.421 -213.335)" fill="#455a64"/>
        <path id="Path_570" data-name="Path 570" d="M292.62,303.914l.55,8.288,1.395-.8.773.8.961-.8,1.485.8V303.68Z" transform="translate(-221.491 -214.226)" fill="#263238"/>
        <path id="Path_571" data-name="Path 571" d="M318.583,340.267,316.8,320.08l17.425,4.8,1.681,13.934Z" transform="translate(-236.557 -224.445)" fill="#78c891"/>
        <path id="Path_572" data-name="Path 572" d="M334.226,324.886a.8.8,0,0,1-.109.143l-.335.4-1.281,1.462-4.451,4.994-.068.075-.072-.072-2.352-2.488-6.208-6.558-1.866-2.005-.5-.55a1.071,1.071,0,0,1-.162-.2,1.505,1.505,0,0,1,.192.173l.528.528,1.907,1.96,6.249,6.521,2.367,2.491h-.139l4.523-4.949,1.323-1.425.358-.377A.755.755,0,0,1,334.226,324.886Z" transform="translate(-236.57 -224.445)" fill="#263238"/>
        <path id="Path_573" data-name="Path 573" d="M327.649,342.75c.049.026-1.195,2.408-2.774,5.322s-2.9,5.254-2.947,5.228,1.195-2.408,2.774-5.322S327.608,342.723,327.649,342.75Z" transform="translate(-239.751 -238.57)" fill="#263238"/>
        <path id="Path_574" data-name="Path 574" d="M357.771,355.371c-.045.026-1.251-1.9-2.695-4.308s-2.578-4.383-2.529-4.414,1.251,1.9,2.695,4.312S357.82,355.345,357.771,355.371Z" transform="translate(-258.83 -241)" fill="#263238"/>
        <path id="Path_575" data-name="Path 575" d="M344.478,350.3,343.34,337.44l11.1,3.061,1.07,8.872Z" transform="translate(-253.094 -235.262)" fill="#78c891"/>
        <path id="Path_576" data-name="Path 576" d="M344.478,350.3,343.34,337.44l11.1,3.061,1.07,8.872Z" transform="translate(-253.094 -235.262)" fill="#fff" opacity="0.4"/>
        <path id="Path_577" data-name="Path 577" d="M354.443,340.5a2.134,2.134,0,0,1-.275.351c-.207.245-.479.558-.807.939l-2.827,3.189-.068.079-.072-.075-1.508-1.583c-1.549-1.624-2.944-3.106-3.946-4.184l-1.176-1.285a3.692,3.692,0,0,1-.415-.49,3.924,3.924,0,0,1,.467.437l1.225,1.24c1.029,1.055,2.439,2.522,3.988,4.146l1.508,1.587h-.158l2.876-3.143.852-.9A2.4,2.4,0,0,1,354.443,340.5Z" transform="translate(-253.1 -235.262)" fill="#263238"/>
        <path id="Path_578" data-name="Path 578" d="M350.255,351.88a37.338,37.338,0,0,1-1.738,3.392,36.559,36.559,0,0,1-1.907,3.313,36.469,36.469,0,0,1,1.734-3.392,36,36,0,0,1,1.911-3.313Z" transform="translate(-255.131 -244.259)" fill="#263238"/>
        <path id="Path_579" data-name="Path 579" d="M369.438,359.916a26.875,26.875,0,0,1-1.749-2.725,25.686,25.686,0,0,1-1.579-2.831A55.411,55.411,0,0,1,369.438,359.916Z" transform="translate(-267.282 -245.804)" fill="#263238"/>
        <path id="Path_580" data-name="Path 580" d="M365.12,344.12v1.033l1.621.188.087-.788Z" transform="translate(-266.665 -239.424)" fill="#fff"/>
        <path id="Path_581" data-name="Path 581" d="M349.94,330.21v1.508l3.061.505.17-1.153Z" transform="translate(-257.206 -230.757)" fill="#fff"/>
        <path id="Path_582" data-name="Path 582" d="M307.925,381.156l-.151-7.516-6.095.411.652,7.636Z" transform="translate(-227.136 -257.817)" fill="#78c891"/>
        <rect id="Rectangle_1476" data-name="Rectangle 1476" width="10.278" height="9.091" transform="translate(90.433 128.257) rotate(-5.42)" fill="#fafafa"/>
        <path id="Path_583" data-name="Path 583" d="M354.713,413.015a1.346,1.346,0,0,1-.026-.173c0-.124-.034-.286-.057-.49-.045-.437-.113-1.059-.2-1.839-.162-1.591-.377-3.837-.663-6.539l.09.075-10.226.984c-.023.023.166-.2.087-.106h0v.3l.03.309.057.611c.041.4.079.8.117,1.2.072.8.147,1.572.219,2.333.139,1.508.275,2.959.4,4.289l-.094-.075,7.384-.656,2.1-.177.562-.041a1.307,1.307,0,0,1,.2,0,1.092,1.092,0,0,1-.177.026l-.543.064-2.073.219-7.429.754h-.087V414c-.132-1.334-.271-2.774-.418-4.289q-.106-1.131-.222-2.333c-.038-.4-.075-.8-.113-1.206-.019-.2-.038-.4-.06-.607l-.026-.309v-.3h0c-.079.094.106-.132.09-.109l10.229-.954h.083v.083c.241,2.725.441,4.994.584,6.6.064.773.113,1.387.151,1.824,0,.2.026.358.034.479A.958.958,0,0,1,354.713,413.015Z" transform="translate(-253.204 -276.666)" fill="#263238"/>
        <path id="Path_584" data-name="Path 584" d="M355.579,409.822c0,.057-1.783.286-4,.52a40.017,40.017,0,0,1-4.014.324c0-.053,1.783-.286,4-.52S355.576,409.769,355.579,409.822Z" transform="translate(-255.73 -280.355)" fill="#263238"/>
        <path id="Path_585" data-name="Path 585" d="M356.011,413.92a5.678,5.678,0,0,1-1.1.275c-.686.136-1.64.294-2.7.418s-2.028.192-2.725.215a6.315,6.315,0,0,1-1.131,0,6.938,6.938,0,0,1,1.131-.128c.694-.064,1.651-.151,2.706-.275s2.009-.26,2.7-.377A7.542,7.542,0,0,1,356.011,413.92Z" transform="translate(-256.222 -282.915)" fill="#263238"/>
        <path id="Path_586" data-name="Path 586" d="M357.155,422.84a5.885,5.885,0,0,1-1.1.275c-.686.136-1.64.294-2.7.418s-2.024.192-2.725.215a5.857,5.857,0,0,1-1.131,0,6.918,6.918,0,0,1,1.131-.128c.694-.06,1.655-.151,2.71-.275s2.009-.26,2.7-.377A7.481,7.481,0,0,1,357.155,422.84Z" transform="translate(-256.932 -288.473)" fill="#263238"/>
        <path id="Path_587" data-name="Path 587" d="M356.047,418.27a34.982,34.982,0,0,1-3.728.633,35.993,35.993,0,0,1-3.769.437,71.767,71.767,0,0,1,7.5-1.07Z" transform="translate(-256.34 -285.626)" fill="#263238"/>
        <path id="Path_588" data-name="Path 588" d="M372.029,426.374s8.424-5.575,9.072-8.424,1.037-5.443,1.037-5.443l-9-3.728.893,3.241s-3.226,1.918-3.558,4.244c-.219,1.549-4.391,4.2-4.391,4.2h0a3.441,3.441,0,0,0-2.876-1.24l-3.505.249,2.371,5.341Z" transform="translate(-263.288 -279.713)" fill="#e2b8a8"/>
        <path id="Path_589" data-name="Path 589" d="M385.457,435.19a1.341,1.341,0,0,1-.4.162c-.264.087-.656.173-1.131.324a4.583,4.583,0,0,0-1.462.852,7.33,7.33,0,0,1-1.8,1.131,6.113,6.113,0,0,1-3.822.32,2.054,2.054,0,0,1-.637-.237.467.467,0,0,1-.234-.467.347.347,0,0,1,.188-.271.14.14,0,0,1,.117,0,.184.184,0,0,0-.1.041.321.321,0,0,0-.132.249.377.377,0,0,0,.219.377,2.118,2.118,0,0,0,.611.192,6.272,6.272,0,0,0,3.713-.377,7.353,7.353,0,0,0,1.764-1.108,4.558,4.558,0,0,1,1.53-.837c.482-.136.874-.2,1.131-.268A2.83,2.83,0,0,1,385.457,435.19Z" transform="translate(-273.425 -296.169)" fill="#aa6550"/>
        <path id="Path_590" data-name="Path 590" d="M373.535,440.327c0,.03-.433-.219-1.15-.516a10.486,10.486,0,0,0-2.921-.727c-.294-.03-.584-.038-.863-.045h-.053l-.03-.045a9.046,9.046,0,0,0-1.564-1.847c-.456-.411-.754-.622-.754-.645s.09.03.234.121a6.912,6.912,0,0,1,.588.426,7.88,7.88,0,0,1,1.647,1.843l-.079-.045a5.863,5.863,0,0,1,.882.045,9.245,9.245,0,0,1,2.959.8,7.3,7.3,0,0,1,.818.437,1.132,1.132,0,0,1,.286.2Z" transform="translate(-267.338 -296.982)" fill="#aa6550"/>
        <path id="Path_591" data-name="Path 591" d="M387.7,442.6c0,.053-.569.268-1.233.645s-1.15.773-1.187.727a4.1,4.1,0,0,1,2.42-1.372Z" transform="translate(-279.226 -300.786)" fill="#aa6550"/>
        <path id="Path_592" data-name="Path 592" d="M399.772,415.838c0,.06-.588,0-1.259.17s-1.131.516-1.184.467A2.461,2.461,0,0,1,399.772,415.838Z" transform="translate(-286.734 -284.049)" fill="#aa6550"/>
      </g>
      <g id="freepik--Plant--inject-93" transform="translate(38.613 164.398)">
        <path id="Path_593" data-name="Path 593" d="M75.534,382.813c1.108,1.319,2.981.682,3.792-.256a7.2,7.2,0,0,0,1.312-3.43c.535-2.782,1.07-5.7.241-8.405a4.64,4.64,0,0,0-1.263-2.167A2.424,2.424,0,0,0,77.26,368a3.534,3.534,0,0,0-1.809,2.261,19.86,19.86,0,0,0-1.2,8.669,6.893,6.893,0,0,0,1.282,3.856" transform="translate(-60.775 -367.898)" fill="#78c891"/>
        <g id="Group_86" data-name="Group 86" transform="translate(13.406)" opacity="0.2">
          <path id="Path_594" data-name="Path 594" d="M75.534,382.813c1.108,1.319,2.981.682,3.792-.256a7.2,7.2,0,0,0,1.312-3.43c.535-2.782,1.07-5.7.241-8.405a4.64,4.64,0,0,0-1.263-2.167A2.424,2.424,0,0,0,77.26,368a3.534,3.534,0,0,0-1.809,2.261,19.86,19.86,0,0,0-1.2,8.669,6.893,6.893,0,0,0,1.282,3.856" transform="translate(-74.181 -367.898)"/>
        </g>
        <path id="Path_595" data-name="Path 595" d="M86.513,423.585a8.657,8.657,0,0,1,5.239-1.131,4.436,4.436,0,0,1,2.721.935,1.889,1.889,0,0,1,.26,2.608,2.51,2.51,0,0,1-1.613.565c-1.4.109-2.978,0-4.018.946-.6.535-.95,1.372-1.692,1.677a1.813,1.813,0,0,1-2.062-.7,3.091,3.091,0,0,1-.426-2.261,3.483,3.483,0,0,1,1.591-2.635Z" transform="translate(-67.432 -401.874)" fill="#78c891"/>
        <path id="Path_596" data-name="Path 596" d="M50.846,394.771a5.138,5.138,0,0,0,.377-4.783,9.133,9.133,0,0,0-3.151-3.8,15.106,15.106,0,0,0-5.277-2.5,5.4,5.4,0,0,0-2.284-.181,2.378,2.378,0,0,0-1.753,1.312c-.433,1.048.177,2.22.81,3.162a38.7,38.7,0,0,0,3.713,4.7,8.947,8.947,0,0,0,3.886,2.77c1.549.441,3.1.23,3.8-.878" transform="translate(-38.613 -377.595)" fill="#78c891"/>
        <path id="Path_597" data-name="Path 597" d="M82.353,441.337a3.132,3.132,0,0,0,.03-.648v-1.756a24.8,24.8,0,0,1,.166-2.6,19.6,19.6,0,0,1,.66-3.1,11.081,11.081,0,0,1,1.3-2.868,5.778,5.778,0,0,1,1.805-1.794,5.455,5.455,0,0,1,1.594-.66,3.7,3.7,0,0,0,.629-.147,2.793,2.793,0,0,0-.648.045,5.08,5.08,0,0,0-1.673.6,5.808,5.808,0,0,0-1.911,1.82,11.085,11.085,0,0,0-1.349,2.929,18.686,18.686,0,0,0-.648,3.151,22.174,22.174,0,0,0-.109,2.62c0,.754.045,1.349.072,1.764A2.838,2.838,0,0,0,82.353,441.337Z" transform="translate(-65.766 -405.199)" fill="#263238"/>
        <path id="Path_598" data-name="Path 598" d="M81.309,412.044a1.481,1.481,0,0,0,0-.3c0-.222-.045-.505-.075-.848-.068-.735-.162-1.8-.241-3.121-.17-2.638-.268-6.287-.188-10.316s.347-7.674.652-10.3c.068-.66.139-1.251.215-1.771s.128-.969.188-1.331.09-.622.124-.844a1.345,1.345,0,0,0,.026-.3,1.086,1.086,0,0,0-.079.29c-.045.219-.1.494-.173.833s-.151.81-.234,1.331-.173,1.108-.256,1.768a96.317,96.317,0,0,0-.727,10.316c-.079,4.037.045,7.7.264,10.335.1,1.319.226,2.386.328,3.117.049.343.094.622.124.844A1.436,1.436,0,0,0,81.309,412.044Z" transform="translate(-64.723 -377.258)" fill="#263238"/>
        <path id="Path_599" data-name="Path 599" d="M62.555,410.439a5.461,5.461,0,0,0-.083-.886c-.087-.565-.237-1.38-.486-2.375a32.3,32.3,0,0,0-1.093-3.426,31.116,31.116,0,0,0-1.832-4.007,22.14,22.14,0,0,0-4.9-6.306,11.943,11.943,0,0,0-1.1-.848c-.166-.117-.313-.234-.464-.324l-.415-.237a6.233,6.233,0,0,0-.788-.411,24.908,24.908,0,0,1,2.638,1.964,23.315,23.315,0,0,1,4.783,6.287,33.509,33.509,0,0,1,1.851,3.954,32.675,32.675,0,0,1,1.131,3.392c.271.984.449,1.787.565,2.344A5.485,5.485,0,0,0,62.555,410.439Z" transform="translate(-46.579 -382.679)" fill="#263238"/>
      </g>
    </g>
  </g>
</svg>
