<svg xmlns="http://www.w3.org/2000/svg" width="30.182" height="32.199" viewBox="0 0 30.182 32.199">
  <g id="icon_box" transform="translate(-16.032 0.001)">
    <g id="Group_3593" data-name="Group 3593" transform="translate(16.032 -0.001)">
      <g id="Group_3592" data-name="Group 3592" transform="translate(0 0)">
        <path id="Path_3212" data-name="Path 3212" d="M45.947,7.1,31.328.046a.472.472,0,0,0-.41,0L16.3,7.1a.472.472,0,0,0-.267.425v17.14a.472.472,0,0,0,.267.425l14.619,7.058a.472.472,0,0,0,.41,0l14.619-7.058a.472.472,0,0,0,.267-.425V7.529A.472.472,0,0,0,45.947,7.1ZM31.123.995,44.658,7.529,40.734,9.423a.468.468,0,0,0-.08-.05L27.212,2.883ZM26.147,3.416,39.661,9.941l-2.768,1.336L23.384,4.755Zm13.831,7.419v4.94l-2.586,1.248v-4.94Zm5.293,13.537-13.676,6.6V14.882l3.262-1.575a.472.472,0,1,0-.41-.849l-3.324,1.6-1.308-.631a.472.472,0,1,0-.41.849l1.246.6V30.975l-13.676-6.6V8.28L27.39,13.308a.472.472,0,0,0,.41-.849L17.589,7.529l4.685-2.262,14.168,6.84.007.008v5.66a.472.472,0,0,0,.677.425l3.529-1.7a.472.472,0,0,0,.267-.425V10.38l4.35-2.1V24.373Z" transform="translate(-16.032 0.001)"/>
      </g>
    </g>
    <g id="Group_3595" data-name="Group 3595" transform="translate(18.045 21.461)">
      <g id="Group_3594" data-name="Group 3594" transform="translate(0)">
        <path id="Path_3213" data-name="Path 3213" d="M50.871,342.344l-2.145-1.036a.472.472,0,0,0-.41.849l2.145,1.036a.472.472,0,0,0,.41-.849Z" transform="translate(-48.048 -341.261)"/>
      </g>
    </g>
    <g id="Group_3597" data-name="Group 3597" transform="translate(18.048 19.224)">
      <g id="Group_3596" data-name="Group 3596" transform="translate(0)">
        <path id="Path_3214" data-name="Path 3214" d="M52.89,307.725l-4.117-1.987a.472.472,0,1,0-.41.85l4.117,1.988a.472.472,0,0,0,.41-.85Z" transform="translate(-48.096 -305.69)"/>
      </g>
    </g>
  </g>
</svg>
