<svg id="icon_home" xmlns="http://www.w3.org/2000/svg" width="33.308" height="33.308" viewBox="0 0 33.308 33.308">
  <g id="Group_1" data-name="Group 1" transform="translate(5.204 5.432)">
    <path id="Path_1" data-name="Path 1" d="M210.661,208.34v11.1a2.082,2.082,0,0,1-2.082,2.082h-4.215a2.082,2.082,0,0,1-2.082-2.082V215.4a3.072,3.072,0,0,0-3.071-3.071h0a3.071,3.071,0,0,0-3.07,3.071v4.044a2.082,2.082,0,0,1-2.082,2.082h-4.216a2.083,2.083,0,0,1-2.082-2.082v-11.1a2.08,2.08,0,0,1,.816-1.651l9.368-7.179a2.08,2.08,0,0,1,2.533,0l9.368,7.179A2.079,2.079,0,0,1,210.661,208.34Z" transform="translate(-187.762 -199.079)" fill="none" stroke="#fff" stroke-linecap="round" stroke-linejoin="round" stroke-width="2"/>
  </g>
  <rect id="Rectangle_1" data-name="Rectangle 1" width="33.308" height="33.308" fill="none"/>
</svg>
