<svg xmlns="http://www.w3.org/2000/svg" width="140.359" height="139.375" viewBox="0 0 140.359 139.375">
  <g id="phone" transform="translate(-137 -144)">
    <path id="blob_13_" data-name="blob (13)" d="M67.5-36.7C77.6-21.4,69.2,6.8,54.8,31,40.5,55.2,20.2,75.3-.9,75.9c-21.2.5-43.2-18.6-55.7-41.7C-69,11.1-71.9-16-60.9-31.8c11.1-15.8,36-20.3,62.8-21.4C28.7-54.2,57.4-52,67.5-36.7Z" transform="translate(204.731 203.406)" fill="#e8f0c0"/>
    <g id="Mobile_login-bro" data-name="Mobile login-bro" transform="translate(79.492 89.673)">
      <g id="freepik--Shadow--inject-1--inject-9" transform="translate(56.672 187.509)">
        <ellipse id="Ellipse_30" data-name="Ellipse 30" cx="57.738" cy="3.597" rx="57.738" ry="3.597" transform="translate(13 -1)" fill="#8d8d8d" opacity="0.364"/>
      </g>
      <g id="freepik--Device--inject-1--inject-9" transform="translate(92.485 54.327)">
        <rect id="Rectangle_1509" data-name="Rectangle 1509" width="72.571" height="137.081" rx="3" fill="#263238"/>
        <rect id="Rectangle_1510" data-name="Rectangle 1510" width="66.12" height="106.975" transform="translate(3.223 15.053)" fill="#fff" stroke="#263238" stroke-miterlimit="10" stroke-width="1.337"/>
        <path id="Icon_awesome-phone-alt" data-name="Icon awesome-phone-alt" d="M34.973,25.439,27.1,22.064a1.687,1.687,0,0,0-1.969.485L21.641,26.81A26.062,26.062,0,0,1,9.183,14.351l4.261-3.488A1.683,1.683,0,0,0,13.929,8.9L10.554,1.02A1.7,1.7,0,0,0,8.62.043L1.308,1.73A1.688,1.688,0,0,0,0,3.375,32.621,32.621,0,0,0,32.625,36a1.687,1.687,0,0,0,1.645-1.308l1.687-7.313a1.708,1.708,0,0,0-.985-1.941Z" transform="translate(18.741 50.919)" fill="#78c891"/>
        <rect id="Rectangle_1513" data-name="Rectangle 1513" width="66.12" height="4.142" transform="translate(3.223 15.195)" fill="#78c891" style="mix-blend-mode: multiply;isolation: isolate"/>
        <path id="Path_3241" data-name="Path 3241" d="M251.739,78.827h-14.38a.979.979,0,0,1-.979-.979h0a.979.979,0,0,1,.979-.979h14.38a.979.979,0,0,1,.979.979h0A.979.979,0,0,1,251.739,78.827Z" transform="translate(-208.265 -71.264)" fill="#78c891" stroke="#263238" stroke-linecap="round" stroke-linejoin="round" stroke-width="1.337"/>
        <path id="Path_3242" data-name="Path 3242" d="M255.594,398.156a3.922,3.922,0,1,0-3.918,3.918A3.922,3.922,0,0,0,255.594,398.156Z" transform="translate(-215.388 -270.084)" fill="#78c891"/>
        <rect id="Rectangle_1514" data-name="Rectangle 1514" width="3.974" height="3.974" transform="translate(34.3 126.085)" fill="#78c891" stroke="#263238" stroke-linecap="round" stroke-linejoin="round" stroke-width="1.337"/>
      </g>
      <g id="freepik--Plant--inject-1--inject-9" transform="translate(159.115 119.818)">
        <path id="Path_3243" data-name="Path 3243" d="M356.493,254.678s-5.207-13.23-.572-14.8c4.826-1.64,4.613,7.1,4.426,11.355-.392,9.1-1.4,10.791-2.148,8.568ZM354.928,265c1.431,1.868,1.834-.067-.747-8.8-1.21-4.109-3.84-12.419-7.874-9.3-3.873,2.988,5.345,13.82,5.345,13.82Zm-2.764,7.582c1.363,1.21,1.389-.317-1.849-6.626-1.52-2.954-4.736-8.935-7.37-5.976-2.529,2.854,6.088,9.79,6.088,9.79Zm-2.988,9.017c1.363,1.214,1.389-.318-1.849-6.622-1.52-2.955-4.736-8.938-7.37-5.976-2.514,2.861,6.077,9.8,6.077,9.8Zm8.628-18.355c-2.181.852-.448,1.778,8.662,1.752,4.273,0,13-.194,11.138-4.942-1.782-4.561-14.758,1.247-14.758,1.247Zm-2.484,6.066c-2.308.4-.792,1.655,8.143,3.44,4.187.84,12.774,2.391,11.9-2.615-.84-4.826-14.713-1.711-14.713-1.711Zm-2.779,7.407c-1.965.284-.71,1.378,6.8,3.1,3.522.807,10.75,2.32,10.122-1.95-.6-4.109-12.4-1.785-12.4-1.785Zm-2.11,6.862c-1.924.489-.56,1.445,7.1,2.357,3.586.426,10.933,1.165,9.861-3.014-1.035-4.012-12.524-.459-12.524-.459ZM361.688,255.8c-1.121,2.51,1.206,2.129,9.118-4.774,3.705-3.238,11.138-10.014,5.252-13.387-5.651-3.242-11.728,12.4-11.728,12.4Zm-10.966,36.717c-1.184.691-.022.96,5.409-.123,2.547-.5,7.728-1.625,5.976-3.836-1.7-2.129-8.643,2.353-8.643,2.353Z" transform="translate(-339.496 -237.196)" fill="#78c891"/>
        <path id="Path_3244" data-name="Path 3244" d="M356.493,254.678s-5.207-13.23-.572-14.8c4.826-1.64,4.613,7.1,4.426,11.355-.392,9.1-1.4,10.791-2.148,8.568ZM354.928,265c1.431,1.868,1.834-.067-.747-8.8-1.21-4.109-3.84-12.419-7.874-9.3-3.873,2.988,5.345,13.82,5.345,13.82Zm-2.764,7.582c1.363,1.21,1.389-.317-1.849-6.626-1.52-2.954-4.736-8.935-7.37-5.976-2.529,2.854,6.088,9.79,6.088,9.79Zm-2.988,9.017c1.363,1.214,1.389-.318-1.849-6.622-1.52-2.955-4.736-8.938-7.37-5.976-2.514,2.861,6.077,9.8,6.077,9.8Zm8.628-18.355c-2.181.852-.448,1.778,8.662,1.752,4.273,0,13-.194,11.138-4.942-1.782-4.561-14.758,1.247-14.758,1.247Zm-2.484,6.066c-2.308.4-.792,1.655,8.143,3.44,4.187.84,12.774,2.391,11.9-2.615-.84-4.826-14.713-1.711-14.713-1.711Zm-2.779,7.407c-1.965.284-.71,1.378,6.8,3.1,3.522.807,10.75,2.32,10.122-1.95-.6-4.109-12.4-1.785-12.4-1.785Zm-2.11,6.862c-1.924.489-.56,1.445,7.1,2.357,3.586.426,10.933,1.165,9.861-3.014-1.035-4.012-12.524-.459-12.524-.459ZM361.688,255.8c-1.121,2.51,1.206,2.129,9.118-4.774,3.705-3.238,11.138-10.014,5.252-13.387-5.651-3.242-11.728,12.4-11.728,12.4Zm-10.966,36.717c-1.184.691-.022.96,5.409-.123,2.547-.5,7.728-1.625,5.976-3.836-1.7-2.129-8.643,2.353-8.643,2.353Z" transform="translate(-339.496 -237.196)" fill="#fff" opacity="0.3"/>
        <path id="Path_3245" data-name="Path 3245" d="M368.433,270.448l-.908-15.1m-1.965,20.084-5.737-12.987m20.543,9.211-13.749,1.972m-4.03,8.8-7.444-9.551m8.751,6.622,10.257.515m-12.685,6.809,7.844.777m-9.738,3.877-3.9-5.861m3.448,7.93,9.222.086m-11.09,17.215a.235.235,0,0,0,.217-.25c-.586-8.808,2.82-23.233,8.285-35.073,3.492-7.567,17.182-22.441,17.328-22.59a.235.235,0,0,0,0-.332.232.232,0,0,0-.329,0c-.138.149-13.884,15.079-17.406,22.714-5.565,12.128-8.927,26.292-8.329,35.312A.239.239,0,0,0,357.257,310.852Zm11.172-40.172a.235.235,0,0,0,.22-.246l-.893-15.109a.232.232,0,0,0-.247-.22.235.235,0,0,0-.22.247l.908,15.1a.232.232,0,0,0,.232.22Zm-2.786,4.964a.235.235,0,0,0,.12-.306l-5.741-12.987a.232.232,0,1,0-.426.187l5.737,12.987a.235.235,0,0,0,.213.142.231.231,0,0,0,.112-.022Zm.994-1.793,13.742-1.965a.235.235,0,1,0-.064-.463l-13.742,1.965a.232.232,0,0,0,.03.463Zm-3.918,8.766a.235.235,0,0,0,.041-.329l-7.448-9.569a.236.236,0,1,0-.374.288l7.463,9.584a.232.232,0,0,0,.183.09.236.236,0,0,0,.149-.063Zm11.639-2.589a.235.235,0,0,0-.224-.243l-10.238-.519a.235.235,0,0,0-.022.467l10.257.519h0a.235.235,0,0,0,.243-.224Zm-4.83,7.6a.232.232,0,0,0-.209-.258l-7.844-.773a.232.232,0,0,0-.254.209.235.235,0,0,0,.209.254l7.844.777h.022a.232.232,0,0,0,.246-.209Zm-9.842,4.049a.235.235,0,0,0,.067-.325l-3.877-5.861a.239.239,0,0,0-.325-.064.235.235,0,0,0-.067.325l3.877,5.861a.243.243,0,0,0,.2.1.224.224,0,0,0,.142-.041Zm8.9,1.961a.239.239,0,0,0-.232-.235l-9.222-.086h0a.232.232,0,0,0-.232.232.228.228,0,0,0,.232.235l9.222.086h0a.235.235,0,0,0,.246-.232Zm-12.375,13.79a9.116,9.116,0,0,1,6.32-5.409.235.235,0,0,0,.179-.28.239.239,0,0,0-.28-.176,9.6,9.6,0,0,0-6.66,5.711.239.239,0,0,0,.146.3h.075a.232.232,0,0,0,.235-.146Zm1.05,3.425a.235.235,0,0,0,.217-.25c-.586-8.808,2.82-23.233,8.285-35.073,3.492-7.567,17.182-22.441,17.328-22.59a.235.235,0,0,0,0-.332.232.232,0,0,0-.329,0c-.138.149-13.884,15.079-17.406,22.714-5.565,12.128-8.927,26.292-8.329,35.312a.239.239,0,0,0,.235.22Zm11.172-40.172a.235.235,0,0,0,.22-.246l-.893-15.109a.232.232,0,0,0-.247-.22.235.235,0,0,0-.22.247l.908,15.1a.232.232,0,0,0,.232.22Zm-2.786,4.964a.235.235,0,0,0,.12-.306l-5.741-12.987a.232.232,0,1,0-.426.187l5.737,12.987a.235.235,0,0,0,.213.142.231.231,0,0,0,.112-.022Zm.994-1.793,13.742-1.965a.235.235,0,1,0-.064-.463l-13.742,1.965a.232.232,0,0,0,.03.463Zm-3.918,8.766a.235.235,0,0,0,.041-.329l-7.448-9.569a.236.236,0,1,0-.374.288l7.463,9.584a.232.232,0,0,0,.183.09.236.236,0,0,0,.149-.063Zm11.639-2.589a.235.235,0,0,0-.224-.243l-10.238-.519a.235.235,0,0,0-.022.467l10.257.519h0a.235.235,0,0,0,.243-.224Zm-4.83,7.6a.232.232,0,0,0-.209-.258l-7.844-.773a.232.232,0,0,0-.254.209.235.235,0,0,0,.209.254l7.844.777h.022a.232.232,0,0,0,.246-.209Zm-9.842,4.049a.235.235,0,0,0,.067-.325l-3.877-5.86a.239.239,0,0,0-.325-.064.235.235,0,0,0-.067.325l3.877,5.861a.243.243,0,0,0,.2.1.224.224,0,0,0,.142-.041Zm8.9,1.961a.239.239,0,0,0-.232-.235l-9.222-.086h0a.232.232,0,0,0-.232.232.228.228,0,0,0,.232.235l9.222.086h0a.235.235,0,0,0,.246-.232Zm-12.375,13.79a9.116,9.116,0,0,1,6.32-5.409.235.235,0,0,0,.179-.28.239.239,0,0,0-.28-.176,9.6,9.6,0,0,0-6.66,5.711.239.239,0,0,0,.146.3h.075a.231.231,0,0,0,.235-.146Z" transform="translate(-349.139 -246.807)" fill="#78c891"/>
        <path id="Path_3246" data-name="Path 3246" d="M368.433,270.448l-.908-15.1m-1.965,20.084-5.737-12.987m20.543,9.211-13.749,1.972m-4.03,8.8-7.444-9.551m8.751,6.622,10.257.515m-12.685,6.809,7.844.777m-9.738,3.877-3.9-5.861m3.448,7.93,9.222.086m-11.09,17.215a.235.235,0,0,0,.217-.25c-.586-8.808,2.82-23.233,8.285-35.073,3.492-7.567,17.182-22.441,17.328-22.59a.235.235,0,0,0,0-.332.232.232,0,0,0-.329,0c-.138.149-13.884,15.079-17.406,22.714-5.565,12.128-8.927,26.292-8.329,35.312A.239.239,0,0,0,357.257,310.852Zm11.172-40.172a.235.235,0,0,0,.22-.246l-.893-15.109a.232.232,0,0,0-.247-.22.235.235,0,0,0-.22.247l.908,15.1a.232.232,0,0,0,.232.22Zm-2.786,4.964a.235.235,0,0,0,.12-.306l-5.741-12.987a.232.232,0,1,0-.426.187l5.737,12.987a.235.235,0,0,0,.213.142.231.231,0,0,0,.112-.022Zm.994-1.793,13.742-1.965a.235.235,0,1,0-.064-.463l-13.742,1.965a.232.232,0,0,0,.03.463Zm-3.918,8.766a.235.235,0,0,0,.041-.329l-7.448-9.569a.236.236,0,1,0-.374.288l7.463,9.584a.232.232,0,0,0,.183.09.236.236,0,0,0,.149-.063Zm11.639-2.589a.235.235,0,0,0-.224-.243l-10.238-.519a.235.235,0,0,0-.022.467l10.257.519h0a.235.235,0,0,0,.243-.224Zm-4.83,7.6a.232.232,0,0,0-.209-.258l-7.844-.773a.232.232,0,0,0-.254.209.235.235,0,0,0,.209.254l7.844.777h.022a.232.232,0,0,0,.246-.209Zm-9.842,4.049a.235.235,0,0,0,.067-.325l-3.877-5.861a.239.239,0,0,0-.325-.064.235.235,0,0,0-.067.325l3.877,5.861a.243.243,0,0,0,.2.1.224.224,0,0,0,.142-.041Zm8.9,1.961a.239.239,0,0,0-.232-.235l-9.222-.086h0a.232.232,0,0,0-.232.232.228.228,0,0,0,.232.235l9.222.086h0a.235.235,0,0,0,.246-.232Zm-12.375,13.79a9.116,9.116,0,0,1,6.32-5.409.235.235,0,0,0,.179-.28.239.239,0,0,0-.28-.176,9.6,9.6,0,0,0-6.66,5.711.239.239,0,0,0,.146.3h.075a.232.232,0,0,0,.235-.146Zm1.05,3.425a.235.235,0,0,0,.217-.25c-.586-8.808,2.82-23.233,8.285-35.073,3.492-7.567,17.182-22.441,17.328-22.59a.235.235,0,0,0,0-.332.232.232,0,0,0-.329,0c-.138.149-13.884,15.079-17.406,22.714-5.565,12.128-8.927,26.292-8.329,35.312a.239.239,0,0,0,.235.22Zm11.172-40.172a.235.235,0,0,0,.22-.246l-.893-15.109a.232.232,0,0,0-.247-.22.235.235,0,0,0-.22.247l.908,15.1a.232.232,0,0,0,.232.22Zm-2.786,4.964a.235.235,0,0,0,.12-.306l-5.741-12.987a.232.232,0,1,0-.426.187l5.737,12.987a.235.235,0,0,0,.213.142.231.231,0,0,0,.112-.022Zm.994-1.793,13.742-1.965a.235.235,0,1,0-.064-.463l-13.742,1.965a.232.232,0,0,0,.03.463Zm-3.918,8.766a.235.235,0,0,0,.041-.329l-7.448-9.569a.236.236,0,1,0-.374.288l7.463,9.584a.232.232,0,0,0,.183.09.236.236,0,0,0,.149-.063Zm11.639-2.589a.235.235,0,0,0-.224-.243l-10.238-.519a.235.235,0,0,0-.022.467l10.257.519h0a.235.235,0,0,0,.243-.224Zm-4.83,7.6a.232.232,0,0,0-.209-.258l-7.844-.773a.232.232,0,0,0-.254.209.235.235,0,0,0,.209.254l7.844.777h.022a.232.232,0,0,0,.246-.209Zm-9.842,4.049a.235.235,0,0,0,.067-.325l-3.877-5.86a.239.239,0,0,0-.325-.064.235.235,0,0,0-.067.325l3.877,5.861a.243.243,0,0,0,.2.1.224.224,0,0,0,.142-.041Zm8.9,1.961a.239.239,0,0,0-.232-.235l-9.222-.086h0a.232.232,0,0,0-.232.232.228.228,0,0,0,.232.235l9.222.086h0a.235.235,0,0,0,.246-.232Zm-12.375,13.79a9.116,9.116,0,0,1,6.32-5.409.235.235,0,0,0,.179-.28.239.239,0,0,0-.28-.176,9.6,9.6,0,0,0-6.66,5.711.239.239,0,0,0,.146.3h.075a.231.231,0,0,0,.235-.146Z" transform="translate(-349.139 -246.807)" opacity="0.2"/>
        <path id="Path_3247" data-name="Path 3247" d="M359.824,391.03H349.25v2.189h.923l1.909,11.941h4.912l1.909-11.941h.923Z" transform="translate(-345.607 -333.57)" fill="#78c891"/>
        <path id="Path_3248" data-name="Path 3248" d="M359.824,391.03H349.25v2.189h.923l1.909,11.941h4.912l1.909-11.941h.923Z" transform="translate(-345.607 -333.57)" fill="#fff" opacity="0.3"/>
      </g>
    </g>
  </g>
</svg>
