<svg xmlns="http://www.w3.org/2000/svg" width="139.664" height="139.375" viewBox="0 0 139.664 139.375">
  <g id="phone-code" transform="translate(-137 -144)">
    <path id="blob_13_" data-name="blob (13)" d="M67.5-36.7C77.6-21.4,69.2,6.8,54.8,31,40.5,55.2,20.2,75.3-.9,75.9c-21.2.5-43.2-18.6-55.7-41.7C-69,11.1-71.9-16-60.9-31.8c11.1-15.8,36-20.3,62.8-21.4C28.7-54.2,57.4-52,67.5-36.7Z" transform="translate(204.731 203.406)" fill="#e8f0c0"/>
    <g id="Mobile_login-bro" data-name="Mobile login-bro" transform="translate(79.492 89.673)">
      <g id="freepik--Shadow--inject-1--inject-9" transform="translate(56.672 187.509)">
        <ellipse id="Ellipse_30" data-name="Ellipse 30" cx="57.738" cy="3.597" rx="57.738" ry="3.597" transform="translate(13 -1)" fill="#8d8d8d" opacity="0.364"/>
      </g>
      <g id="freepik--Device--inject-1--inject-9" transform="translate(92.485 54.327)">
        <rect id="Rectangle_1509" data-name="Rectangle 1509" width="72.571" height="137.081" rx="3" fill="#263238"/>
        <rect id="Rectangle_1510" data-name="Rectangle 1510" width="66.12" height="106.975" transform="translate(3.223 15.053)" fill="#fff" stroke="#263238" stroke-miterlimit="10" stroke-width="1.337"/>
        <g id="Group_8265" data-name="Group 8265">
          <circle id="Ellipse_31" data-name="Ellipse 31" cx="14.332" cy="14.332" r="14.332" transform="translate(16.017 48.236) rotate(-45)" fill="#78c891"/>
          <path id="Path_3233" data-name="Path 3233" d="M244.434,368.389H206.806a.643.643,0,0,1-.646-.642h0a.642.642,0,0,1,.646-.646h37.628a.642.642,0,0,1,.642.646h0A.642.642,0,0,1,244.434,368.389Z" transform="translate(-189.333 -253.087)" fill="#78c891"/>
          <rect id="Rectangle_1511" data-name="Rectangle 1511" width="43.078" height="7.721" rx="3.86" transform="translate(14.746 70.625)" fill="#78c891"/>
          <rect id="Rectangle_1512" data-name="Rectangle 1512" width="43.078" height="7.721" rx="3.86" transform="translate(14.746 85.065)" fill="#78c891"/>
          <path id="Path_3234" data-name="Path 3234" d="M250.7,179.727l-4.217-2.428v-2.006a6.6,6.6,0,0,0,1.3-2.529,1.359,1.359,0,0,0,.452.078c.523,0,.855-1.621.911-2.779a1.721,1.721,0,0,0-.22-2.043,3.476,3.476,0,0,0,.571-1.722c.228-1.378-.8-.8-1.606-2.066s-1.378-2.637-4.015-2.637a3.623,3.623,0,0,0-3.444,2.181,8.726,8.726,0,0,0-1.95.228c-.807.228-1.035,2.869-.347,3.9a3.933,3.933,0,0,1,.478,1.841c-.183-.224-.374-.284-.478.224a5.059,5.059,0,0,0,.691,2.753l.474-.134a6.724,6.724,0,0,0,1.348,2.7V177.3l-4.217,2.428a3.242,3.242,0,0,0-1.621,2.805v1.389a14.324,14.324,0,0,0,17.514,0v-1.389A3.235,3.235,0,0,0,250.7,179.727Z" transform="translate(-207.282 -124.342)" fill="#263238"/>
          <path id="Path_3235" data-name="Path 3235" d="M212.987,298.6a.374.374,0,0,1-.258-.108.347.347,0,0,1-.116-.261.373.373,0,0,1,.056-.19l.672-1.076-1.311.041a.351.351,0,0,1-.269-.1.374.374,0,0,1,0-.5.34.34,0,0,1,.269-.1l1.292.049-.665-1.072a.373.373,0,0,1-.056-.194.347.347,0,0,1,.116-.261.373.373,0,0,1,.258-.108.336.336,0,0,1,.3.194l.639,1.154.631-1.147a.374.374,0,0,1,.325-.209.34.34,0,0,1,.25.112.381.381,0,0,1,.056.448l-.676,1.083,1.311-.049a.34.34,0,0,1,.269.1.347.347,0,0,1,.1.247.374.374,0,0,1-.1.25.351.351,0,0,1-.269.1l-1.319-.041.657,1.065a.374.374,0,0,1-.317.571.329.329,0,0,1-.3-.2l-.624-1.121-.62,1.121A.351.351,0,0,1,212.987,298.6Z" transform="translate(-192.783 -207.736)" fill="#263238"/>
          <path id="Path_3236" data-name="Path 3236" d="M229.2,298.6a.374.374,0,0,1-.258-.108.347.347,0,0,1-.116-.261.373.373,0,0,1,.056-.19l.672-1.076-1.307.041a.374.374,0,0,1-.273-.1.355.355,0,0,1,.273-.6l1.289.049-.665-1.072a.373.373,0,0,1-.056-.194.347.347,0,0,1,.116-.261.373.373,0,0,1,.258-.108.336.336,0,0,1,.3.194l.639,1.154.631-1.147a.374.374,0,0,1,.325-.209.332.332,0,0,1,.25.112.365.365,0,0,1,.056.448l-.676,1.083,1.315-.041a.333.333,0,0,1,.265.1.347.347,0,0,1,.1.247.373.373,0,0,1-.1.25.344.344,0,0,1-.265.1l-1.322-.041.657,1.065a.374.374,0,0,1-.318.571.329.329,0,0,1-.3-.2l-.624-1.121-.62,1.121A.351.351,0,0,1,229.2,298.6Z" transform="translate(-202.935 -207.736)" fill="#263238"/>
          <path id="Path_3237" data-name="Path 3237" d="M245.427,298.6a.374.374,0,0,1-.261-.108.348.348,0,0,1-.116-.261.374.374,0,0,1,.056-.191l.672-1.076-1.307.041a.355.355,0,0,1-.273-.6.351.351,0,0,1,.273-.1l1.289.049-.665-1.072a.375.375,0,0,1,.321-.564.336.336,0,0,1,.3.194l.639,1.154.631-1.147a.373.373,0,0,1,.325-.209.333.333,0,0,1,.25.112.366.366,0,0,1,.056.448l-.676,1.083,1.315-.049a.34.34,0,0,1,.374.351.374.374,0,0,1-.093.25.351.351,0,0,1-.269.1l-1.318-.041.654,1.065a.363.363,0,0,1-.06.459.351.351,0,0,1-.254.112.325.325,0,0,1-.3-.2l-.628-1.121-.62,1.121a.347.347,0,0,1-.318.2Z" transform="translate(-213.103 -207.736)" fill="#263238"/>
          <path id="Path_3238" data-name="Path 3238" d="M261.65,298.6a.376.376,0,0,1-.373-.37.351.351,0,0,1,.052-.19l.672-1.076-1.307.041a.352.352,0,1,1,0-.7l1.292.049-.661-1.072a.375.375,0,0,1,.321-.564.336.336,0,0,1,.3.194l.635,1.154.631-1.147a.374.374,0,0,1,.325-.209.332.332,0,0,1,.25.112.365.365,0,0,1,.056.448l-.676,1.083,1.315-.049a.34.34,0,0,1,.373.351.373.373,0,0,1-.093.25.351.351,0,0,1-.269.1l-1.318-.041.654,1.064a.373.373,0,0,1,.056.2.347.347,0,0,1-.116.262.351.351,0,0,1-.254.112.325.325,0,0,1-.3-.2l-.627-1.121-.62,1.121a.347.347,0,0,1-.325.2Z" transform="translate(-223.268 -207.736)" fill="#263238"/>
          <path id="Path_3239" data-name="Path 3239" d="M277.87,298.6a.37.37,0,0,1-.317-.56l.669-1.076-1.307.041a.352.352,0,1,1,0-.7l1.292.049-.665-1.072a.372.372,0,0,1,.318-.564.336.336,0,0,1,.3.194l.635,1.154.631-1.147a.373.373,0,0,1,.325-.209.34.34,0,0,1,.254.112.371.371,0,0,1,.052.448l-.676,1.083,1.315-.049a.34.34,0,0,1,.374.351.374.374,0,0,1-.093.25.351.351,0,0,1-.269.1l-1.319-.041.654,1.065a.373.373,0,0,1,.056.2.347.347,0,0,1-.116.261.351.351,0,0,1-.254.112.325.325,0,0,1-.3-.2l-.628-1.121-.62,1.121a.347.347,0,0,1-.317.2Z" transform="translate(-233.429 -207.736)" fill="#263238"/>
          <path id="Path_3240" data-name="Path 3240" d="M294.08,298.6a.374.374,0,0,1-.258-.108.348.348,0,0,1-.116-.261.374.374,0,0,1,.056-.191l.669-1.076-1.307.041a.352.352,0,0,1-.273-.6.34.34,0,0,1,.269-.1l1.292.049-.665-1.072a.372.372,0,0,1,.318-.564.336.336,0,0,1,.3.194l.635,1.154.635-1.147a.374.374,0,0,1,.321-.209.34.34,0,0,1,.254.112.381.381,0,0,1,.056.448l-.676,1.083,1.311-.049a.34.34,0,0,1,.269.1.347.347,0,0,1,.1.247.373.373,0,0,1-.1.25.351.351,0,0,1-.269.1l-1.319-.041.654,1.065a.378.378,0,0,1-.314.571.325.325,0,0,1-.3-.2L295,297.28l-.62,1.121a.347.347,0,0,1-.3.2Z" transform="translate(-243.58 -207.736)" fill="#263238"/>
        </g>
        <rect id="Rectangle_1513" data-name="Rectangle 1513" width="66.12" height="4.142" transform="translate(3.223 15.195)" fill="#78c891" style="mix-blend-mode: multiply;isolation: isolate"/>
        <path id="Path_3241" data-name="Path 3241" d="M251.739,78.827h-14.38a.979.979,0,0,1-.979-.979h0a.979.979,0,0,1,.979-.979h14.38a.979.979,0,0,1,.979.979h0A.979.979,0,0,1,251.739,78.827Z" transform="translate(-208.265 -71.264)" fill="#78c891" stroke="#263238" stroke-linecap="round" stroke-linejoin="round" stroke-width="1.337"/>
        <path id="Path_3242" data-name="Path 3242" d="M255.594,398.156a3.922,3.922,0,1,0-3.918,3.918A3.922,3.922,0,0,0,255.594,398.156Z" transform="translate(-215.388 -270.084)" fill="#78c891"/>
        <rect id="Rectangle_1514" data-name="Rectangle 1514" width="3.974" height="3.974" transform="translate(34.3 126.085)" fill="#78c891" stroke="#263238" stroke-linecap="round" stroke-linejoin="round" stroke-width="1.337"/>
      </g>
      <g id="freepik--Plant--inject-1--inject-9" transform="translate(60.115 118.818)">
        <path id="Path_3243" data-name="Path 3243" d="M361.252,254.678s5.207-13.23.572-14.8c-4.826-1.64-4.613,7.1-4.426,11.355.392,9.1,1.4,10.791,2.148,8.568ZM362.817,265c-1.431,1.868-1.834-.067.747-8.8,1.21-4.109,3.84-12.419,7.874-9.3,3.873,2.988-5.345,13.82-5.345,13.82Zm2.764,7.582c-1.363,1.21-1.389-.317,1.849-6.626,1.52-2.954,4.736-8.934,7.37-5.976,2.529,2.854-6.088,9.79-6.088,9.79Zm2.988,9.017c-1.363,1.214-1.389-.318,1.849-6.622,1.52-2.955,4.736-8.938,7.37-5.976,2.514,2.861-6.077,9.8-6.077,9.8Zm-8.628-18.355c2.181.852.448,1.778-8.662,1.752-4.273,0-13-.194-11.138-4.942,1.782-4.561,14.758,1.247,14.758,1.247Zm2.484,6.066c2.308.4.792,1.655-8.143,3.44-4.187.84-12.774,2.391-11.9-2.615.84-4.826,14.713-1.711,14.713-1.711Zm2.779,7.407c1.965.284.71,1.378-6.8,3.1-3.522.807-10.75,2.32-10.122-1.95.6-4.109,12.4-1.785,12.4-1.785Zm2.11,6.862c1.924.489.56,1.445-7.1,2.357-3.586.426-10.933,1.165-9.861-3.014,1.035-4.012,12.524-.459,12.524-.459ZM356.057,255.8c1.121,2.51-1.206,2.129-9.118-4.774-3.705-3.238-11.138-10.014-5.252-13.387,5.651-3.242,11.728,12.4,11.728,12.4Zm10.966,36.717c1.184.691.022.96-5.409-.123-2.547-.5-7.728-1.625-5.976-3.836,1.7-2.129,8.643,2.353,8.643,2.353Z" transform="translate(-339.496 -237.196)" fill="#78c891"/>
        <path id="Path_3244" data-name="Path 3244" d="M361.252,254.678s5.207-13.23.572-14.8c-4.826-1.64-4.613,7.1-4.426,11.355.392,9.1,1.4,10.791,2.148,8.568ZM362.817,265c-1.431,1.868-1.834-.067.747-8.8,1.21-4.109,3.84-12.419,7.874-9.3,3.873,2.988-5.345,13.82-5.345,13.82Zm2.764,7.582c-1.363,1.21-1.389-.317,1.849-6.626,1.52-2.954,4.736-8.934,7.37-5.976,2.529,2.854-6.088,9.79-6.088,9.79Zm2.988,9.017c-1.363,1.214-1.389-.318,1.849-6.622,1.52-2.955,4.736-8.938,7.37-5.976,2.514,2.861-6.077,9.8-6.077,9.8Zm-8.628-18.355c2.181.852.448,1.778-8.662,1.752-4.273,0-13-.194-11.138-4.942,1.782-4.561,14.758,1.247,14.758,1.247Zm2.484,6.066c2.308.4.792,1.655-8.143,3.44-4.187.84-12.774,2.391-11.9-2.615.84-4.826,14.713-1.711,14.713-1.711Zm2.779,7.407c1.965.284.71,1.378-6.8,3.1-3.522.807-10.75,2.32-10.122-1.95.6-4.109,12.4-1.785,12.4-1.785Zm2.11,6.862c1.924.489.56,1.445-7.1,2.357-3.586.426-10.933,1.165-9.861-3.014,1.035-4.012,12.524-.459,12.524-.459ZM356.057,255.8c1.121,2.51-1.206,2.129-9.118-4.774-3.705-3.238-11.138-10.014-5.252-13.387,5.651-3.242,11.728,12.4,11.728,12.4Zm10.966,36.717c1.184.691.022.96-5.409-.123-2.547-.5-7.728-1.625-5.976-3.836,1.7-2.129,8.643,2.353,8.643,2.353Z" transform="translate(-339.496 -237.196)" fill="#fff" opacity="0.3"/>
        <path id="Path_3245" data-name="Path 3245" d="M369.611,270.448l.908-15.1m1.965,20.084,5.737-12.987m-20.543,9.211,13.749,1.972m4.03,8.8,7.444-9.551m-8.751,6.622-10.257.515m12.685,6.809-7.844.777m9.738,3.877,3.9-5.861m-3.448,7.93-9.222.086m11.09,17.215a.235.235,0,0,1-.217-.25c.586-8.808-2.82-23.233-8.285-35.073-3.492-7.567-17.182-22.441-17.327-22.59a.235.235,0,0,1,0-.332.232.232,0,0,1,.329,0c.138.149,13.884,15.079,17.406,22.714,5.565,12.128,8.927,26.292,8.329,35.312A.239.239,0,0,1,380.786,310.851ZM369.615,270.68a.235.235,0,0,1-.22-.246l.893-15.109a.232.232,0,0,1,.247-.22.235.235,0,0,1,.22.247l-.908,15.1a.232.232,0,0,1-.232.22Zm2.786,4.964a.235.235,0,0,1-.12-.306l5.741-12.987a.232.232,0,1,1,.426.187l-5.737,12.987a.235.235,0,0,1-.213.142.231.231,0,0,1-.112-.022Zm-.994-1.793-13.742-1.965a.235.235,0,1,1,.064-.463l13.742,1.965a.232.232,0,0,1-.03.463Zm3.918,8.766a.235.235,0,0,1-.041-.329l7.448-9.569a.236.236,0,1,1,.374.288l-7.463,9.584a.232.232,0,0,1-.183.09.236.236,0,0,1-.149-.063Zm-11.639-2.589a.235.235,0,0,1,.224-.243l10.238-.519a.235.235,0,0,1,.022.467l-10.257.519h0a.235.235,0,0,1-.243-.224Zm4.83,7.6a.232.232,0,0,1,.209-.258l7.844-.773a.232.232,0,0,1,.254.209.235.235,0,0,1-.209.254l-7.844.777h-.022a.232.232,0,0,1-.246-.209Zm9.842,4.049a.235.235,0,0,1-.067-.325l3.877-5.861a.239.239,0,0,1,.325-.064.235.235,0,0,1,.067.325l-3.877,5.86a.243.243,0,0,1-.2.1.224.224,0,0,1-.142-.041Zm-8.9,1.961a.239.239,0,0,1,.232-.235l9.222-.086h0a.232.232,0,0,1,.232.232.228.228,0,0,1-.232.235l-9.222.086h0a.235.235,0,0,1-.246-.232Zm12.375,13.79a9.116,9.116,0,0,0-6.32-5.409.235.235,0,0,1-.179-.28.239.239,0,0,1,.28-.176,9.6,9.6,0,0,1,6.66,5.711.239.239,0,0,1-.146.3h-.075a.232.232,0,0,1-.235-.146Zm-1.05,3.425a.235.235,0,0,1-.217-.25c.586-8.808-2.82-23.233-8.285-35.073-3.492-7.567-17.182-22.441-17.327-22.59a.235.235,0,0,1,0-.332.232.232,0,0,1,.329,0c.138.149,13.884,15.079,17.406,22.714,5.565,12.128,8.927,26.292,8.329,35.312a.239.239,0,0,1-.235.22ZM369.614,270.68a.235.235,0,0,1-.22-.246l.893-15.109a.232.232,0,0,1,.247-.22.235.235,0,0,1,.22.247l-.908,15.1a.232.232,0,0,1-.232.22Zm2.786,4.964a.235.235,0,0,1-.12-.306l5.741-12.987a.232.232,0,1,1,.426.187l-5.737,12.987a.235.235,0,0,1-.213.142.231.231,0,0,1-.112-.022Zm-.994-1.793-13.742-1.965a.235.235,0,1,1,.064-.463l13.742,1.965a.232.232,0,0,1-.03.463Zm3.918,8.766a.235.235,0,0,1-.041-.329l7.448-9.569a.236.236,0,1,1,.374.288l-7.463,9.584a.232.232,0,0,1-.183.09.236.236,0,0,1-.149-.063Zm-11.639-2.589a.235.235,0,0,1,.224-.243l10.238-.519a.235.235,0,0,1,.022.467l-10.257.519h0a.235.235,0,0,1-.243-.224Zm4.83,7.6a.232.232,0,0,1,.209-.258l7.844-.773a.232.232,0,0,1,.254.209.235.235,0,0,1-.209.254l-7.844.777h-.022a.232.232,0,0,1-.246-.209Zm9.842,4.049a.235.235,0,0,1-.067-.325l3.877-5.86a.239.239,0,0,1,.325-.064.235.235,0,0,1,.067.325l-3.877,5.86a.243.243,0,0,1-.2.1.224.224,0,0,1-.142-.041Zm-8.9,1.961a.239.239,0,0,1,.232-.235l9.222-.086h0a.232.232,0,0,1,.232.232.228.228,0,0,1-.232.235l-9.222.086h0a.235.235,0,0,1-.246-.232Zm12.375,13.79a9.116,9.116,0,0,0-6.32-5.409.235.235,0,0,1-.179-.28.239.239,0,0,1,.28-.176,9.6,9.6,0,0,1,6.66,5.711.239.239,0,0,1-.146.3h-.075a.231.231,0,0,1-.235-.146Z" transform="translate(-350.152 -246.807)" fill="#78c891"/>
        <path id="Path_3246" data-name="Path 3246" d="M369.611,270.448l.908-15.1m1.965,20.084,5.737-12.987m-20.543,9.211,13.749,1.972m4.03,8.8,7.444-9.551m-8.751,6.622-10.257.515m12.685,6.809-7.844.777m9.738,3.877,3.9-5.861m-3.448,7.93-9.222.086m11.09,17.215a.235.235,0,0,1-.217-.25c.586-8.808-2.82-23.233-8.285-35.073-3.492-7.567-17.182-22.441-17.327-22.59a.235.235,0,0,1,0-.332.232.232,0,0,1,.329,0c.138.149,13.884,15.079,17.406,22.714,5.565,12.128,8.927,26.292,8.329,35.312A.239.239,0,0,1,380.786,310.851ZM369.615,270.68a.235.235,0,0,1-.22-.246l.893-15.109a.232.232,0,0,1,.247-.22.235.235,0,0,1,.22.247l-.908,15.1a.232.232,0,0,1-.232.22Zm2.786,4.964a.235.235,0,0,1-.12-.306l5.741-12.987a.232.232,0,1,1,.426.187l-5.737,12.987a.235.235,0,0,1-.213.142.231.231,0,0,1-.112-.022Zm-.994-1.793-13.742-1.965a.235.235,0,1,1,.064-.463l13.742,1.965a.232.232,0,0,1-.03.463Zm3.918,8.766a.235.235,0,0,1-.041-.329l7.448-9.569a.236.236,0,1,1,.374.288l-7.463,9.584a.232.232,0,0,1-.183.09.236.236,0,0,1-.149-.063Zm-11.639-2.589a.235.235,0,0,1,.224-.243l10.238-.519a.235.235,0,0,1,.022.467l-10.257.519h0a.235.235,0,0,1-.243-.224Zm4.83,7.6a.232.232,0,0,1,.209-.258l7.844-.773a.232.232,0,0,1,.254.209.235.235,0,0,1-.209.254l-7.844.777h-.022a.232.232,0,0,1-.246-.209Zm9.842,4.049a.235.235,0,0,1-.067-.325l3.877-5.861a.239.239,0,0,1,.325-.064.235.235,0,0,1,.067.325l-3.877,5.86a.243.243,0,0,1-.2.1.224.224,0,0,1-.142-.041Zm-8.9,1.961a.239.239,0,0,1,.232-.235l9.222-.086h0a.232.232,0,0,1,.232.232.228.228,0,0,1-.232.235l-9.222.086h0a.235.235,0,0,1-.246-.232Zm12.375,13.79a9.116,9.116,0,0,0-6.32-5.409.235.235,0,0,1-.179-.28.239.239,0,0,1,.28-.176,9.6,9.6,0,0,1,6.66,5.711.239.239,0,0,1-.146.3h-.075a.232.232,0,0,1-.235-.146Zm-1.05,3.425a.235.235,0,0,1-.217-.25c.586-8.808-2.82-23.233-8.285-35.073-3.492-7.567-17.182-22.441-17.327-22.59a.235.235,0,0,1,0-.332.232.232,0,0,1,.329,0c.138.149,13.884,15.079,17.406,22.714,5.565,12.128,8.927,26.292,8.329,35.312a.239.239,0,0,1-.235.22ZM369.614,270.68a.235.235,0,0,1-.22-.246l.893-15.109a.232.232,0,0,1,.247-.22.235.235,0,0,1,.22.247l-.908,15.1a.232.232,0,0,1-.232.22Zm2.786,4.964a.235.235,0,0,1-.12-.306l5.741-12.987a.232.232,0,1,1,.426.187l-5.737,12.987a.235.235,0,0,1-.213.142.231.231,0,0,1-.112-.022Zm-.994-1.793-13.742-1.965a.235.235,0,1,1,.064-.463l13.742,1.965a.232.232,0,0,1-.03.463Zm3.918,8.766a.235.235,0,0,1-.041-.329l7.448-9.569a.236.236,0,1,1,.374.288l-7.463,9.584a.232.232,0,0,1-.183.09.236.236,0,0,1-.149-.063Zm-11.639-2.589a.235.235,0,0,1,.224-.243l10.238-.519a.235.235,0,0,1,.022.467l-10.257.519h0a.235.235,0,0,1-.243-.224Zm4.83,7.6a.232.232,0,0,1,.209-.258l7.844-.773a.232.232,0,0,1,.254.209.235.235,0,0,1-.209.254l-7.844.777h-.022a.232.232,0,0,1-.246-.209Zm9.842,4.049a.235.235,0,0,1-.067-.325l3.877-5.86a.239.239,0,0,1,.325-.064.235.235,0,0,1,.067.325l-3.877,5.86a.243.243,0,0,1-.2.1.224.224,0,0,1-.142-.041Zm-8.9,1.961a.239.239,0,0,1,.232-.235l9.222-.086h0a.232.232,0,0,1,.232.232.228.228,0,0,1-.232.235l-9.222.086h0a.235.235,0,0,1-.246-.232Zm12.375,13.79a9.116,9.116,0,0,0-6.32-5.409.235.235,0,0,1-.179-.28.239.239,0,0,1,.28-.176,9.6,9.6,0,0,1,6.66,5.711.239.239,0,0,1-.146.3h-.075a.231.231,0,0,1-.235-.146Z" transform="translate(-350.152 -246.807)" opacity="0.2"/>
        <path id="Path_3247" data-name="Path 3247" d="M349.25,391.03h10.574v2.189H358.9l-1.909,11.941h-4.912l-1.909-11.941h-.923Z" transform="translate(-324.715 -333.57)" fill="#78c891"/>
        <path id="Path_3248" data-name="Path 3248" d="M349.25,391.03h10.574v2.189H358.9l-1.909,11.941h-4.912l-1.909-11.941h-.923Z" transform="translate(-324.715 -333.57)" fill="#fff" opacity="0.3"/>
      </g>
    </g>
  </g>
</svg>
